<svg width="39" height="32" viewBox="0 0 39 32" fill="none" xmlns="http://www.w3.org/2000/svg">
<g clip-path="url(#clip0_416_97)">
<mask id="mask0_416_97" style="mask-type:luminance" maskUnits="userSpaceOnUse" x="1" y="0" width="38" height="32">
<path d="M1.94299 0.542816H38.7194V31.7305H1.94299V0.542816Z" fill="white"/>
</mask>
<g mask="url(#mask0_416_97)">
<path d="M37.128 25.0841L33.7179 20.7531C31.5763 18.1272 28.8498 11.5436 28.7714 8.81448L28.7622 8.40795C28.7418 7.28077 28.7194 6.00371 27.9257 4.92589C26.7795 3.36794 24.2793 2.84743 22.4647 3.79243C21.3236 4.38564 20.6277 5.46795 20.5146 6.59692C18.6736 5.14487 17.4448 3.05564 16.3547 1.18628L15.9797 0.542816L15.2156 0.805765C12.319 1.79923 9.03526 2.92551 6.88549 5.26423C4.52379 7.83359 3.89313 11.2788 5.31646 13.8365L5.40408 13.9936L11.7026 18.5203H2.14172V20.1222H13.9308L18.7306 23.571L19.8799 22.3308L6.86817 12.9786C6.10709 11.4835 6.2915 9.81064 6.94152 8.3532L28.3588 25.3417C30.7103 27.0064 33.7709 28.191 36.8702 28.6667C36.8519 28.8094 36.8183 28.9503 36.75 29.0822C36.2915 29.9733 34.7541 30.2058 33.4693 30.1187C30.3486 29.9168 27.3318 28.6487 25.1901 26.6385L24.9242 26.389L6.27418 26.2436L6.25787 27.8446L24.1387 27.9837C26.5676 30.1394 29.8982 31.4936 33.3369 31.7162C33.5569 31.7296 33.7729 31.7368 33.9838 31.7368C36.1224 31.7368 37.7515 31.0126 38.4056 29.7454C39.3532 27.9065 37.7943 25.9286 37.128 25.0841ZM23.3878 5.17179C24.3526 4.66833 25.7882 4.96718 26.3995 5.79641C26.9089 6.48923 26.9263 7.43423 26.9446 8.43307L26.9466 8.55782C25.4418 8.64218 23.9033 8.37564 22.5401 7.80128L22.5523 7.795C22.0236 6.92359 22.4219 5.67346 23.3878 5.17179ZM7.80143 6.88051C7.95935 6.66782 8.12441 6.46141 8.29863 6.27205C9.97158 4.45205 12.6298 3.42269 15.1137 2.56025C16.3119 4.59474 17.7179 6.78269 19.9685 8.28948C21.9787 9.63384 24.59 10.3015 27.1096 10.1508C27.2869 11.0976 27.6089 12.222 28.0215 13.4031H24.2202V15.0041H28.6257C28.9415 15.792 29.2869 16.58 29.6507 17.3401H27.129V18.942H30.4657C31.0546 20.0217 31.6598 20.9738 32.2324 21.6765L35.6354 25.9968C35.8738 26.3001 36.1051 26.616 36.3058 26.9337C33.8106 26.4312 31.401 25.4413 29.5355 24.1229L7.80143 6.88051Z" fill="#FF3131"/>
</g>
<mask id="mask1_416_97" style="mask-type:luminance" maskUnits="userSpaceOnUse" x="0" y="22" width="10" height="3">
<path d="M0.247559 22.3918H9.50686V24.2297H0.247559V22.3918Z" fill="white"/>
</mask>
<g mask="url(#mask1_416_97)">
<path d="M0.264893 22.5174H9.49159V24.1193H0.264893V22.5174Z" fill="#FF3131"/>
</g>
</g>
<defs>
<clipPath id="clip0_416_97">
<rect width="39" height="32" fill="white"/>
</clipPath>
</defs>
</svg>
