<?xml version="1.0" encoding="UTF-8"?>
<svg version="1.1" xmlns="http://www.w3.org/2000/svg" width="1024" height="335">
<path d="M0 0 C1.9030188 0.00081573 1.9030188 0.00081573 3.84448242 0.00164795 C22.30640185 0.03809592 40.13998353 0.5005576 58.25 4.375 C59.31863281 4.59462402 60.38726562 4.81424805 61.48828125 5.04052734 C86.27458232 10.23374256 110.5927951 18.46199877 133.3125 29.6875 C133.97354736 30.01290771 134.63459473 30.33831543 135.31567383 30.67358398 C143.23755853 34.70949851 144.80806976 39.56533744 147.875 47.625 C148.31158936 48.7694458 148.74817871 49.9138916 149.19799805 51.09301758 C163.45901944 89.35661713 171.48880527 129.01699989 171.4375 169.875 C171.43689575 170.76372803 171.4362915 171.65245605 171.43566895 172.56811523 C171.41159788 185.60758934 171.13088193 198.45202167 169.25 211.375 C169.12641113 212.28427246 169.00282227 213.19354492 168.87548828 214.13037109 C165.13497635 241.17540587 157.36718239 267.56870533 147.1875 292.875 C146.88336182 293.65866943 146.57922363 294.44233887 146.26586914 295.24975586 C143.56177389 301.72946104 139.79115827 305.35168277 133.34375 308.26171875 C131.81834327 308.87667683 130.28655876 309.47596244 128.75 310.0625 C127.89615723 310.39427246 127.04231445 310.72604492 126.16259766 311.06787109 C96.51768653 322.38323942 66.77452855 330.31850659 35.25 334.375 C34.60319275 334.46161896 33.9563855 334.54823792 33.28997803 334.63748169 C27.1934915 335.39531909 21.16261583 335.55195466 15.0234375 335.578125 C13.42636459 335.58667511 13.42636459 335.58667511 11.79702759 335.59539795 C9.54633563 335.60480553 7.29563017 335.61136496 5.04492188 335.61523438 C1.68333154 335.62483343 -1.67761801 335.65585357 -5.0390625 335.6875 C-19.50794693 335.7586638 -33.47131963 334.71070326 -47.75 332.375 C-48.9987793 332.17084473 -50.24755859 331.96668945 -51.53417969 331.75634766 C-54.47223608 331.23789385 -57.39177834 330.67042603 -60.3125 330.0625 C-61.34149414 329.85157715 -62.37048828 329.6406543 -63.43066406 329.42333984 C-85.46103015 324.78945953 -106.88918521 318.02581968 -127.8125 309.75 C-129.21435547 309.2099231 -129.21435547 309.2099231 -130.64453125 308.65893555 C-138.10961419 305.62555541 -140.91522663 302.48987865 -144.1171875 295.0859375 C-144.96451542 292.97850235 -145.79985366 290.86621857 -146.625 288.75 C-147.06553711 287.62988525 -147.50607422 286.50977051 -147.95996094 285.35571289 C-151.66654595 275.8121416 -154.99437414 266.2347921 -157.75 256.375 C-158.00233398 255.47523438 -158.25466797 254.57546875 -158.51464844 253.6484375 C-162.80947559 238.06177183 -165.63072426 222.39506035 -167.75 206.375 C-167.9257959 205.18672607 -168.1015918 203.99845215 -168.28271484 202.77416992 C-168.95550282 197.31732143 -168.95018375 191.85494466 -168.98828125 186.36328125 C-168.99802979 185.20941925 -169.00777832 184.05555725 -169.01782227 182.86672974 C-169.33321808 135.88812875 -169.33321808 135.88812875 -164.75 113.375 C-164.38359406 111.40374251 -164.01770546 109.4323888 -163.65234375 107.4609375 C-159.66948422 86.96168425 -153.26916422 66.71866891 -145.5 47.34521484 C-144.81997426 45.55881909 -144.26177091 43.72722683 -143.71875 41.89453125 C-141.40045448 35.36190566 -138.0376088 32.54647911 -132.05200195 29.45263672 C-127.35878938 27.23464971 -122.57650132 25.28199905 -117.75 23.375 C-116.78078613 22.98183594 -115.81157227 22.58867187 -114.81298828 22.18359375 C-95.97901364 14.58606429 -76.71681192 8.6131059 -56.8125 4.5625 C-55.85545166 4.3675293 -54.89840332 4.17255859 -53.91235352 3.97167969 C-35.91129965 0.50741238 -18.28718992 -0.02936915 0 0 Z " fill="#FCFDFD" transform="translate(168.75,-0.375)"/>
<path d="M0 0 C24.11407324 -0.13446835 48.20975403 0.17018885 72.31811523 0.68969727 C77.2581106 0.79534743 82.19827254 0.8848984 87.13863659 0.97130299 C91.01419355 1.04209719 94.88942755 1.12496475 98.76467323 1.21100426 C100.58675533 1.24938786 102.40893718 1.28334653 104.23119164 1.31241798 C121.92666716 1.60209639 139.61701666 3.1498876 153.1875 15.95703125 C160.87278359 24.6195384 165.27954549 34.4508959 166 46 C166.07927734 47.06927734 166.07927734 47.06927734 166.16015625 48.16015625 C166.88944021 67.15324721 159.47951869 84.67079061 146.6875 98.5 C141.28766238 103.52310477 135.83488172 108.48267222 130 113 C130.61875 113.64001953 130.61875 113.64001953 131.25 114.29296875 C140.14134799 123.91864682 145.83781996 134.29768355 149 147 C149.28810547 147.92619141 149.28810547 147.92619141 149.58203125 148.87109375 C152.8192186 165.35957139 147.89894938 183.34625519 138.92578125 197.203125 C136.70734904 200.22298037 134.40021024 203.12295333 132 206 C131.30003906 206.86367188 130.60007812 207.72734375 129.87890625 208.6171875 C113.61989432 227.77000522 88.88915524 240.41884477 64 243 C54.59548003 243.51926775 45.16454099 243.35048883 35.75 243.29296875 C33.03760015 243.28567684 30.32520065 243.28294985 27.61279297 243.28010559 C21.24545918 243.27085344 14.87828352 243.24633434 8.51101875 243.21605712 C1.2508325 243.18229772 -6.00936209 243.16597349 -13.26960754 243.15097082 C-28.17982583 243.11977696 -43.08989695 243.06715251 -58 243 C-57.85193307 241.41904591 -57.70096979 239.83836294 -57.54881287 238.25779724 C-57.46506125 237.37752585 -57.38130964 236.49725447 -57.2950201 235.59030819 C-56.87724871 231.92223053 -56.12167502 228.37701833 -55.28515625 224.78515625 C-55.11446625 224.03044037 -54.94377625 223.27572449 -54.76791382 222.49813843 C-54.20533081 220.01820956 -53.63400616 217.54038635 -53.0625 215.0625 C-52.65393914 213.27036372 -52.24582786 211.4781249 -51.83813477 209.68579102 C-48.88882211 196.7493697 -45.86950776 183.82911386 -42.84594727 170.90988159 C-37.57491859 148.37283471 -32.52002913 125.78664239 -27.44506836 103.20483398 C-27.19000771 102.07008589 -27.19000771 102.07008589 -26.92979431 100.9124136 C-26.12722545 97.34166608 -25.32506974 93.77082715 -24.5239563 90.19975281 C-22.71087307 82.12647339 -20.8680619 74.06074211 -19 66 C-23.62 66 -28.24 66 -33 66 C-31.58032432 61.74097296 -30.2780472 58.35130206 -28.234375 54.45703125 C-27.40353394 52.86507935 -27.40353394 52.86507935 -26.5559082 51.2409668 C-25.9599585 50.10957275 -25.36400879 48.97817871 -24.75 47.8125 C-24.12868059 46.62500155 -23.50783888 45.43725305 -22.88745117 44.24926758 C-21.5907269 41.76708767 -20.29192887 39.28600944 -18.99169922 36.80566406 C-16.05368138 31.19696657 -13.14086613 25.57520022 -10.22790527 19.95346069 C-9.33015739 18.22156388 -8.43120399 16.49029212 -7.53222656 14.7590332 C-6.98147461 13.69773193 -6.43072266 12.63643066 -5.86328125 11.54296875 C-5.14072144 10.1511438 -5.14072144 10.1511438 -4.40356445 8.73120117 C-2.91348226 5.83164482 -1.45596023 2.91681273 0 0 Z M56 49 C54.43014411 55.22883116 52.8639352 61.45857097 51.30029297 67.68896484 C50.76761033 69.80962024 50.23408429 71.93006396 49.69970703 74.05029297 C48.93301613 77.09287523 48.16933332 80.13619874 47.40625 83.1796875 C47.04533264 84.60787308 47.04533264 84.60787308 46.67712402 86.06491089 C46.45689575 86.94567291 46.23666748 87.82643494 46.00976562 88.73388672 C45.81435181 89.51110077 45.61893799 90.28831482 45.41760254 91.08908081 C44.92883456 92.99964506 44.92883456 92.99964506 45 95 C50.87155408 95.07433795 56.74283219 95.12869117 62.61474609 95.16479492 C64.61088841 95.17985098 66.60699781 95.20030027 68.60302734 95.22631836 C71.47762185 95.26284161 74.35177772 95.27975837 77.2265625 95.29296875 C78.11429352 95.30845261 79.00202454 95.32393646 79.91665649 95.33988953 C85.06126251 95.34127661 88.50045593 94.79048978 93 92 C93 91.34 93 90.68 93 90 C93.66 90 94.32 90 95 90 C101.07110286 80.40673059 103.33809959 71.26997643 101 60 C99.32846589 55.19929067 97.497438 51.59355689 93 49 C90.09569198 48.74312011 87.41409168 48.65012709 84.515625 48.70703125 C83.70003113 48.71127609 82.88443726 48.71552094 82.04412842 48.71989441 C79.44574616 48.73665285 76.84814681 48.77429903 74.25 48.8125 C72.48568831 48.82755054 70.72136442 48.8412383 68.95703125 48.85351562 C64.63772035 48.88654699 60.3189928 48.93830914 56 49 Z M37 132 C34.50183969 139.15879063 32.46337992 146.39944727 30.52050781 153.72729492 C30.00524946 155.6677308 29.48312768 157.60633993 28.9609375 159.54492188 C26.71204738 167.98684338 24.74835883 176.44115436 23 185 C28.69251691 185.07451939 34.38474575 185.12877612 40.07763672 185.16479492 C42.01160635 185.17982075 43.94554226 185.20024726 45.87939453 185.22631836 C48.66968136 185.26297591 51.45951511 185.27978868 54.25 185.29296875 C55.533302 185.31619453 55.533302 185.31619453 56.8425293 185.33988953 C64.81131557 185.3420909 71.3957091 183.35780161 77.3359375 177.8515625 C84.14468209 170.27563542 87.23281134 161.35670602 88.4375 151.375 C87.64262942 145.24314125 85.48357328 140.62158009 81.3125 136.0625 C72.65278028 130.67059904 62.26247018 131.76003733 52.4375 131.875 C50.93685494 131.88505077 49.43620335 131.89417291 47.93554688 131.90234375 C44.29022719 131.92418909 40.64515624 131.9586031 37 132 Z " fill="#0A377F" transform="translate(448,50)"/>
<path d="M0 0 C36.96 0 73.92 0 112 0 C113.18221576 2.36443151 113.29740907 4.14206014 113.53735352 6.77807617 C113.63190323 7.79649597 113.72645294 8.81491577 113.8238678 9.86419678 C113.92453049 10.99569153 114.02519318 12.12718628 114.12890625 13.29296875 C114.29373756 15.09643768 114.29373756 15.09643768 114.4618988 16.93634033 C114.76825131 20.3043219 115.07056981 23.67261821 115.37078857 27.04114914 C115.56343472 29.19796485 115.75766619 31.35463216 115.95239258 33.51126099 C118.6918588 63.86765338 121.23321288 94.24089084 123.76535892 124.61515808 C125.40391906 144.26409676 127.05747203 163.91073881 128.84375 183.546875 C128.91554474 184.33771547 128.98733948 185.12855595 129.06130981 185.94336128 C129.72739815 193.27786718 130.39778535 200.61192214 131.08571625 207.94441414 C131.38375362 211.1331748 131.67549842 214.32251492 131.96875 217.51171875 C132.07457397 218.6134845 132.18039795 219.71525024 132.28942871 220.85040283 C132.38405396 221.888078 132.4786792 222.92575317 132.57617188 223.99487305 C132.65863159 224.87193405 132.74109131 225.74899506 132.8260498 226.65263367 C133.09155716 231.76185697 133 236.88388264 133 242 C105.61 242 78.22 242 50 242 C50 226.49 50 210.98 50 195 C30.53 195 11.06 195 -9 195 C-9.99 198.3 -10.98 201.6 -12 205 C-18.435 222.325 -18.435 222.325 -25 240 C-50.41 240 -75.82 240 -102 240 C-102.33 239.34 -102.66 238.68 -103 238 C-102.18259165 235.89814656 -101.25401669 233.83930522 -100.28125 231.8046875 C-99.98791275 231.18470383 -99.6945755 230.56472015 -99.39234924 229.9259491 C-98.76229549 228.59624111 -98.12870707 227.26820339 -97.49197388 225.94168091 C-95.84290311 222.50600266 -94.21823777 219.05879377 -92.58984375 215.61328125 C-92.11205727 214.60529732 -92.11205727 214.60529732 -91.62461853 213.57695007 C-89.35159609 208.77396387 -87.15746497 203.94544841 -85.0625 199.0625 C-80.69665627 188.94414257 -75.96733588 179.00839073 -71.19873047 169.07568359 C-65.72348817 157.66812522 -60.37486624 146.20776403 -55.08984375 134.7109375 C-52.50651561 129.09201446 -49.90118589 123.48361057 -47.28979492 117.87768555 C-41.06281259 104.50812772 -34.93053565 91.09781294 -28.84838867 77.66186523 C-28.53956757 76.9802684 -28.23074646 76.29867157 -27.91256714 75.59642029 C-27.07356845 73.74428976 -26.23560121 71.89169209 -25.39770508 70.0390625 C-24.30906493 67.67200703 -23.16516857 65.33033714 -22 63 C-25.3 62.67 -28.6 62.34 -32 62 C-30.58061361 57.2933761 -28.60705518 53.06555915 -26.2890625 48.75 C-25.92082367 48.05600098 -25.55258484 47.36200195 -25.17318726 46.64697266 C-23.99475009 44.42900028 -22.8098713 42.21454046 -21.625 40 C-20.8680936 38.5757312 -20.11158046 37.15125334 -19.35546875 35.7265625 C-12.99024225 23.76895319 -6.48730532 11.89339309 0 0 Z M49 68 C44.04072743 77.87228013 39.08573313 87.74669427 34.13624573 97.6238842 C31.83806371 102.20979457 29.53839383 106.79494623 27.23535156 111.37841797 C25.01438719 115.79867483 22.79729491 120.22085348 20.58291626 124.64441299 C19.73583666 126.33486626 18.88734522 128.0246128 18.03744507 129.71364975 C16.85068645 132.07272744 15.66889487 134.43422917 14.48828125 136.79638672 C14.13295319 137.49985229 13.77762512 138.20331787 13.41152954 138.92810059 C11.60684541 142.29958601 11.60684541 142.29958601 11 146 C23.87 146 36.74 146 50 146 C50 120.26 50 94.52 50 68 C49.67 68 49.34 68 49 68 Z " fill="#0A377F" transform="translate(891,53)"/>
<path d="M0 0 C10.87666548 4.20905319 20.95762056 10.12488343 31 16 C31.72541992 16.4242627 32.45083984 16.84852539 33.19824219 17.28564453 C39.81631105 21.16097604 46.43040991 25.04287848 53 29 C52.42802873 35.15649076 49.87834563 40.39849993 47.4375 46 C46.44979998 48.29916963 45.46287192 50.59867098 44.4765625 52.8984375 C44.20936905 53.51915131 43.9421756 54.13986511 43.66688538 54.77938843 C40.19973174 62.83936162 36.80737996 70.9309116 33.40774536 79.01953125 C31.97309916 82.43239742 30.53675101 85.84454607 29.10037231 89.25668335 C27.73325991 92.50432025 26.36662964 95.75215992 25 99 C21.12436918 97.49668057 17.66445424 95.70532162 14.0625 93.625 C-6.66175626 82.41198846 -31.59619209 81.71962571 -54 88 C-66.38223248 92.20640434 -77.83680751 97.62009235 -87.40625 106.6796875 C-89 108 -89 108 -91 108 C-91.38671875 108.83724609 -91.38671875 108.83724609 -91.78125 109.69140625 C-93.62841564 113.19036424 -96.01546405 116.27331619 -98.34375 119.46484375 C-104.79390424 129.33783927 -104.11009015 142.51798746 -101.9375 153.6875 C-98.97902345 165.03754321 -92.21907325 173.612546 -82.28125 179.65234375 C-58.98045295 192.19185164 -31.33102272 187.79437224 -6.94140625 180.76953125 C-4 180 -4 180 -1 180 C-1.58238685 184.12077638 -2.51228855 187.75029664 -4.01171875 191.62890625 C-4.43316162 192.72944336 -4.85460449 193.82998047 -5.28881836 194.96386719 C-5.7503833 196.15141602 -6.21194824 197.33896484 -6.6875 198.5625 C-7.68432639 201.14114419 -8.67829127 203.72088615 -9.671875 206.30078125 C-9.93540268 206.98337006 -10.19893036 207.66595886 -10.47044373 208.36923218 C-12.27932785 213.07171871 -14.03415081 217.79190818 -15.76127625 222.52500916 C-17.00495809 225.93242542 -18.26030168 229.33549969 -19.51602173 232.73849487 C-20.13000039 234.41190443 -20.73855364 236.08731465 -21.34164429 237.76467896 C-22.19125029 240.12472816 -23.06019367 242.47679705 -23.93359375 244.828125 C-24.18429626 245.54030685 -24.43499878 246.25248871 -24.69329834 246.98625183 C-26.50024788 251.76890111 -26.50024788 251.76890111 -29.0078125 252.9284668 C-29.66523437 252.95207275 -30.32265625 252.97567871 -31 253 C-31.97066406 253.10441406 -32.94132813 253.20882812 -33.94140625 253.31640625 C-71.06837848 255.83959854 -116.79280969 255.96488309 -146.70703125 230.109375 C-147.46371094 229.41328125 -148.22039063 228.7171875 -149 228 C-149.82886719 227.26265625 -150.65773438 226.5253125 -151.51171875 225.765625 C-166.7135739 211.5182508 -174.85408818 192.58623851 -176.20336914 171.87890625 C-176.30237404 168.68692879 -176.32904507 165.50593824 -176.3125 162.3125 C-176.30758545 161.1776416 -176.3026709 160.0427832 -176.29760742 158.87353516 C-175.79996131 122.91541326 -158.5297403 87.10580078 -137 59 C-136.54753906 58.40848145 -136.09507812 57.81696289 -135.62890625 57.20751953 C-130.59878783 50.69784476 -130.59878783 50.69784476 -128 48 C-127.34 48 -126.68 48 -126 48 C-125.67 47.01 -125.34 46.02 -125 45 C-107.72684887 26.23349287 -80.22976488 14.2239628 -54.97280884 12.89318848 C-50.50578541 12.75365243 -46.0409293 12.7579545 -41.57226562 12.79418945 C-39.26681259 12.81236744 -36.9617672 12.8146986 -34.65625 12.81445312 C-24.40854932 12.83939765 -14.22234684 13.29520633 -4 14 C-3.8669043 13.3601416 -3.73380859 12.7202832 -3.59667969 12.06103516 C-2.7161893 7.86366636 -1.77421354 3.9286157 0 0 Z " fill="#0A377F" transform="translate(787,44)"/>
<path d="M0 0 C1.9030188 0.00081573 1.9030188 0.00081573 3.84448242 0.00164795 C22.30640185 0.03809592 40.13998353 0.5005576 58.25 4.375 C59.31863281 4.59462402 60.38726562 4.81424805 61.48828125 5.04052734 C86.27458232 10.23374256 110.5927951 18.46199877 133.3125 29.6875 C133.97354736 30.01290771 134.63459473 30.33831543 135.31567383 30.67358398 C143.23755853 34.70949851 144.80806976 39.56533744 147.875 47.625 C148.31158936 48.7694458 148.74817871 49.9138916 149.19799805 51.09301758 C163.45901944 89.35661713 171.48880527 129.01699989 171.4375 169.875 C171.43689575 170.76372803 171.4362915 171.65245605 171.43566895 172.56811523 C171.41159788 185.60758934 171.13088193 198.45202167 169.25 211.375 C169.12641113 212.28427246 169.00282227 213.19354492 168.87548828 214.13037109 C165.13497635 241.17540587 157.36718239 267.56870533 147.1875 292.875 C146.88336182 293.65866943 146.57922363 294.44233887 146.26586914 295.24975586 C143.56177389 301.72946104 139.79115827 305.35168277 133.34375 308.26171875 C131.81834327 308.87667683 130.28655876 309.47596244 128.75 310.0625 C127.89615723 310.39427246 127.04231445 310.72604492 126.16259766 311.06787109 C96.51768653 322.38323942 66.77452855 330.31850659 35.25 334.375 C34.60319275 334.46161896 33.9563855 334.54823792 33.28997803 334.63748169 C27.1934915 335.39531909 21.16261583 335.55195466 15.0234375 335.578125 C13.42636459 335.58667511 13.42636459 335.58667511 11.79702759 335.59539795 C9.54633563 335.60480553 7.29563017 335.61136496 5.04492188 335.61523438 C1.68333154 335.62483343 -1.67761801 335.65585357 -5.0390625 335.6875 C-19.50794693 335.7586638 -33.47131963 334.71070326 -47.75 332.375 C-48.9987793 332.17084473 -50.24755859 331.96668945 -51.53417969 331.75634766 C-54.47223608 331.23789385 -57.39177834 330.67042603 -60.3125 330.0625 C-61.34149414 329.85157715 -62.37048828 329.6406543 -63.43066406 329.42333984 C-85.46103015 324.78945953 -106.88918521 318.02581968 -127.8125 309.75 C-129.21435547 309.2099231 -129.21435547 309.2099231 -130.64453125 308.65893555 C-138.10961419 305.62555541 -140.91522663 302.48987865 -144.1171875 295.0859375 C-144.96451542 292.97850235 -145.79985366 290.86621857 -146.625 288.75 C-147.06553711 287.62988525 -147.50607422 286.50977051 -147.95996094 285.35571289 C-151.66654595 275.8121416 -154.99437414 266.2347921 -157.75 256.375 C-158.00233398 255.47523438 -158.25466797 254.57546875 -158.51464844 253.6484375 C-162.80947559 238.06177183 -165.63072426 222.39506035 -167.75 206.375 C-167.9257959 205.18672607 -168.1015918 203.99845215 -168.28271484 202.77416992 C-168.95550282 197.31732143 -168.95018375 191.85494466 -168.98828125 186.36328125 C-168.99802979 185.20941925 -169.00777832 184.05555725 -169.01782227 182.86672974 C-169.33321808 135.88812875 -169.33321808 135.88812875 -164.75 113.375 C-164.38359406 111.40374251 -164.01770546 109.4323888 -163.65234375 107.4609375 C-159.66948422 86.96168425 -153.26916422 66.71866891 -145.5 47.34521484 C-144.81997426 45.55881909 -144.26177091 43.72722683 -143.71875 41.89453125 C-141.40045448 35.36190566 -138.0376088 32.54647911 -132.05200195 29.45263672 C-127.35878938 27.23464971 -122.57650132 25.28199905 -117.75 23.375 C-116.78078613 22.98183594 -115.81157227 22.58867187 -114.81298828 22.18359375 C-95.97901364 14.58606429 -76.71681192 8.6131059 -56.8125 4.5625 C-55.85545166 4.3675293 -54.89840332 4.17255859 -53.91235352 3.97167969 C-35.91129965 0.50741238 -18.28718992 -0.02936915 0 0 Z M-120.74414062 38.45288086 C-122.75 39.375 -122.75 39.375 -124.86523438 40.09594727 C-128.28626936 41.3980367 -130.22812147 42.53302297 -132.18652344 45.69262695 C-133.53973755 48.73366139 -134.6688113 51.78940057 -135.75 54.9375 C-136.16733398 56.09354736 -136.58466797 57.24959473 -137.01464844 58.44067383 C-138.30308726 62.07219704 -139.5359185 65.71799762 -140.75 69.375 C-141.3078418 71.04030762 -141.3078418 71.04030762 -141.87695312 72.73925781 C-146.1740749 85.79049789 -149.4987528 98.96294336 -152.125 112.4375 C-152.36379883 113.66041748 -152.60259766 114.88333496 -152.84863281 116.14331055 C-155.9415336 132.83535143 -157.08037133 149.12309002 -157.01074219 166.0871582 C-157.00004836 169.17354127 -157.01069101 172.25933785 -157.0234375 175.34570312 C-157.0376438 193.17318423 -155.96358087 210.77440153 -152.25 228.25 C-151.87077393 230.05295532 -151.87077393 230.05295532 -151.48388672 231.89233398 C-148.2827718 246.38902537 -143.65568044 260.37938228 -138.75 274.375 C-138.38583984 275.44395508 -138.02167969 276.51291016 -137.64648438 277.61425781 C-136.67409335 280.44444676 -135.66091522 283.25503862 -134.625 286.0625 C-134.34930176 286.86373291 -134.07360352 287.66496582 -133.78955078 288.49047852 C-132.29822898 292.32125317 -130.99342529 294.63930358 -127.30078125 296.58984375 C-125.79668062 297.21661011 -124.27772286 297.80823936 -122.75 298.375 C-121.34524414 298.93852173 -121.34524414 298.93852173 -119.91210938 299.51342773 C-105.12435761 305.35356856 -90.16075275 310.46441522 -74.75 314.375 C-73.87069824 314.60026367 -72.99139648 314.82552734 -72.08544922 315.05761719 C-58.09017341 318.5872766 -44.0860096 320.78085283 -29.75 322.375 C-29.09741211 322.45833084 -28.44482422 322.54166168 -27.77246094 322.6275177 C-22.13559942 323.31827096 -16.59012478 323.53559308 -10.9140625 323.54296875 C-9.99523285 323.54629715 -9.0764032 323.54962555 -8.12973022 323.55305481 C-6.19179784 323.55808981 -4.25385689 323.5604642 -2.31591797 323.56030273 C0.58251101 323.56246825 3.48054543 323.58060292 6.37890625 323.59960938 C22.70118836 323.65013386 38.653469 322.39994511 54.6875 319.25 C55.76749268 319.03899658 56.84748535 318.82799316 57.96020508 318.6105957 C78.88012179 314.34787907 99.24170294 307.75605913 119.25 300.375 C119.94158203 300.12621094 120.63316406 299.87742187 121.34570312 299.62109375 C129.36497342 296.90220389 129.36497342 296.90220389 134.25 290.375 C145.82653461 264.28455329 153.54690796 236.682944 157.25 208.375 C157.35296387 207.60494629 157.45592773 206.83489258 157.56201172 206.04150391 C160.67292503 181.60142193 160.69810964 155.76353421 157.25 131.375 C157.06478197 129.89587364 156.87988949 128.41670649 156.6953125 126.9375 C154.02802735 106.93501935 148.47559863 87.42466677 142.125 68.3125 C141.71757568 67.08297607 141.31015137 65.85345215 140.89038086 64.58666992 C139.72563802 61.16243402 138.51158772 57.76467428 137.25 54.375 C136.86142822 53.32989258 136.47285645 52.28478516 136.07250977 51.20800781 C134.00777752 46.14456772 132.39857465 42.44744089 127.34106445 40.02050781 C126.71288818 39.76624023 126.08471191 39.51197266 125.4375 39.25 C124.76098389 38.94416992 124.08446777 38.63833984 123.38745117 38.32324219 C121.02783107 37.28472753 118.64720903 36.32349662 116.25 35.375 C115.29899414 34.99569336 114.34798828 34.61638672 113.36816406 34.22558594 C102.16112153 29.80524971 90.86651287 25.5931834 79.25 22.375 C78.59918457 22.18486328 77.94836914 21.99472656 77.27783203 21.79882812 C56.91662719 15.85840844 35.63124404 12.2673725 14.3984375 12.171875 C12.87363266 12.16332489 12.87363266 12.16332489 11.31802368 12.15460205 C9.17166158 12.14520663 7.02528542 12.13863996 4.87890625 12.13476562 C1.68201543 12.12517111 -1.51420003 12.09414108 -4.7109375 12.0625 C-44.75926472 11.8591541 -84.65577288 20.99175735 -120.74414062 38.45288086 Z " fill="#0D3980" transform="translate(168.75,-0.375)"/>
<path d="M0 0 C10.95351304 8.00369691 18.14211782 17.76921768 22.63671875 30.515625 C22.88421875 31.20398438 23.13171875 31.89234375 23.38671875 32.6015625 C27.13897074 44.95272531 23.96415547 55.91352517 18.35546875 67.0625 C13.22735332 76.18577512 6.20182788 84.22635198 -0.4609375 92.25390625 C-7.0729952 100.26959446 -12.65919384 108.22162705 -17.36328125 117.515625 C-17.770625 118.31742187 -18.17796875 119.11921875 -18.59765625 119.9453125 C-23.62985624 131.13228017 -25.31130531 144.12900562 -26.41796875 156.2421875 C-26.50159668 157.13924911 -26.58522461 158.03631073 -26.67138672 158.96055603 C-27.6756369 170.28442075 -28.06100981 181.63783063 -28.46777344 192.99584961 C-28.57100941 195.8166068 -28.68527135 198.63675406 -28.80078125 201.45703125 C-28.82793213 202.31108047 -28.85508301 203.1651297 -28.88305664 204.0450592 C-28.9164917 204.83786789 -28.94992676 205.63067657 -28.984375 206.44750977 C-29.02195923 207.48501122 -29.02195923 207.48501122 -29.06030273 208.54347229 C-29.41206533 210.8331711 -30.23823385 212.50394165 -31.36328125 214.515625 C-31.39642426 213.87685928 -31.42956726 213.23809357 -31.4637146 212.57997131 C-31.81422998 205.8456768 -32.17256478 199.11182868 -32.53515625 192.37817383 C-32.66894048 189.87534752 -32.80082463 187.37241882 -32.93066406 184.86938477 C-34.85885936 147.76645749 -38.45807673 116.55489022 -63.53222656 87.6862793 C-77.40793797 71.67378613 -85.87382462 56.33218709 -84.36328125 34.515625 C-81.69621339 20.20021859 -73.61205491 8.4329048 -62.0234375 -0.234375 C-43.51347347 -12.23435168 -18.61765246 -11.69373213 0 0 Z " fill="#0B387F" transform="translate(203.36328125,43.484375)"/>
<path d="M0 0 C4.92966785 2.48130275 9.23143239 5.28702336 13.5078125 8.765625 C14.73564453 9.73242188 14.73564453 9.73242188 15.98828125 10.71875 C33.25114725 25.171382 42.10809108 46.15924111 46.5078125 67.765625 C46.67152344 68.55904297 46.83523437 69.35246094 47.00390625 70.16992188 C49.5027668 82.9843266 49.76867281 95.75675665 49.7578125 108.765625 C49.75721832 109.56378632 49.75662415 110.36194763 49.75601196 111.18429565 C49.7494726 113.48239494 49.73298236 115.78012589 49.7109375 118.078125 C49.7065416 118.76479752 49.70214569 119.45147003 49.69761658 120.15895081 C49.63996421 124.12014995 49.25995241 127.87680542 48.5078125 131.765625 C43.37462063 130.35712723 39.76429618 128.05797705 35.5078125 125.015625 C23.56505433 116.77744373 12.25926794 112.66743863 -2.3203125 112.58984375 C-4.02475187 112.56664052 -5.72917898 112.54252298 -7.43359375 112.51757812 C-10.08390488 112.48259617 -12.73376415 112.45316781 -15.38427734 112.43969727 C-28.0338829 112.36306871 -39.6202144 111.93967136 -49.85058594 103.49194336 C-56.52328595 96.47489075 -56.01645501 87.49192188 -55.8046875 78.390625 C-55.79501953 77.12089844 -55.78535156 75.85117188 -55.77539062 74.54296875 C-55.662132 65.27545849 -55.662132 65.27545849 -54.4921875 61.765625 C-51.03152569 63.28164887 -48.56851261 65.33973007 -45.7421875 67.828125 C-27.48321973 82.95073213 -1.39973501 94.1778241 22.5078125 93.765625 C12.60620429 84.04831068 5.47240071 79.33891419 -8.40380859 76.96972656 C-23.18923572 74.33058497 -36.47207538 66.36902162 -45.37109375 54.1953125 C-51.87180113 44.45103713 -55.15842746 35.6375847 -53.4921875 23.765625 C-49.80301058 12.37668867 -42.20546421 4.27208049 -31.7421875 -1.296875 C-20.6248823 -6.6754933 -10.88206264 -4.95873559 0 0 Z " fill="#0C3880" transform="translate(111.4921875,121.234375)"/>
<path d="M0 0 C8.85957148 5.59924918 17.23199384 13.6158822 20 24 C21.73871001 37.08513721 16.59538711 47.65148749 9 58 C0.31476667 69.00421251 -13.60845645 75.64298667 -27.3203125 77.43359375 C-28.41085938 77.55863281 -29.50140625 77.68367188 -30.625 77.8125 C-41.41674197 79.30954503 -48.89664871 86.1639248 -56 94 C-29.50631648 92.83287738 -1.70599252 82.06029386 17.3984375 63.3984375 C19 62 19 62 21 62 C22.21299164 67.41896116 22.22175634 72.65527268 22.25 78.1875 C22.270625 79.17814453 22.29125 80.16878906 22.3125 81.18945312 C22.35316212 88.94066996 21.66686158 96.47033026 16.875 102.8125 C7.6383164 109.84041144 -1.22461006 112.28886196 -12.734375 112.2734375 C-14.37761089 112.2937333 -16.02084001 112.31458421 -17.6640625 112.3359375 C-20.20220728 112.35841626 -22.74008087 112.37497701 -25.27832031 112.38085938 C-42.29548044 112.44704825 -54.89594522 116.08980737 -69.43359375 125.12890625 C-70.30757812 125.6717627 -70.30757812 125.6717627 -71.19921875 126.22558594 C-72.8563727 127.26177265 -74.50461176 128.3121764 -76.15234375 129.36328125 C-78.60019288 130.77020688 -80.30476622 131.41169291 -83 132 C-83.64386823 82.09525909 -83.64386823 82.09525909 -80 66 C-79.83902832 65.27039063 -79.67805664 64.54078125 -79.51220703 63.7890625 C-75.49485631 46.43842962 -67.71267454 30.40844896 -56 17 C-55.16082031 15.99453125 -55.16082031 15.99453125 -54.3046875 14.96875 C-40.76362632 -0.00126739 -18.96520134 -9.66797482 0 0 Z " fill="#0C3880" transform="translate(268,121)"/>
<path d="M0 0 C2.93847653 -0.107834 5.87301151 -0.18721916 8.8125 -0.25 C9.64587891 -0.28351563 10.47925781 -0.31703125 11.33789062 -0.3515625 C17.48304777 -0.45027988 17.48304777 -0.45027988 20.08984375 1.8203125 C21.35892545 4.85957254 20.81858732 6.86208192 20 10 C19.67 10.66 19.34 11.32 19 12 C19.99 12.33 20.98 12.66 22 13 C23.43735246 15.87470493 23.38172649 17.81894588 23 21 C19.12370094 25.09780186 15.59576235 25.91242367 10.10546875 26.09765625 C9.14253906 26.08605469 8.17960938 26.07445312 7.1875 26.0625 C6.21167969 26.05347656 5.23585937 26.04445313 4.23046875 26.03515625 C3.49441406 26.02355469 2.75835937 26.01195312 2 26 C0.79013457 17.29328988 -0.29850618 8.81180849 0 0 Z " fill="#194286" transform="translate(189,284)"/>
<path d="M0 0 C15.96666667 0.96666667 15.96666667 0.96666667 20 5 C20.46993007 12.28391608 20.46993007 12.28391608 18.6875 15 C17 16 17 16 14 16 C15.65 19.96 17.3 23.92 19 28 C17.68 28.33 16.36 28.66 15 29 C11.29413203 26.33640739 9.82631876 22.80082952 8.125 18.70703125 C6.95241437 16.50885621 6.95241437 16.50885621 3 16 C2.67 19.3 2.34 22.6 2 26 C0.02 26 -1.96 26 -4 26 C-3.52451163 22.41616855 -3.04396997 18.83303236 -2.5625 15.25 C-2.42779297 14.23421875 -2.29308594 13.2184375 -2.15429688 12.171875 C-2.02216797 11.1921875 -1.89003906 10.2125 -1.75390625 9.203125 C-1.63345947 8.30239258 -1.5130127 7.40166016 -1.38891602 6.47363281 C-1.04205758 4.26749992 -0.58252295 2.15423582 0 0 Z " fill="#1B4386" transform="translate(109,278)"/>
<path d="M0 0 C2.206875 -0.061875 4.41375 -0.12375 6.6875 -0.1875 C8.54955078 -0.23970703 8.54955078 -0.23970703 10.44921875 -0.29296875 C14.21666932 0.01787701 16.02794917 0.7227143 19 3 C20.56935594 6.13871188 20.35201103 8.53855822 20 12 C18.125 14.9375 18.125 14.9375 15 17 C11.62316725 17.40212665 8.38243292 17.29555239 5 17 C5 19.97 5 22.94 5 26 C3.35 26 1.7 26 0 26 C0 17.42 0 8.84 0 0 Z " fill="#1F4689" transform="translate(157,284)"/>
<path d="M0 0 C3.44696301 1.36007518 4.90788101 2.29346214 6.99609375 5.42578125 C7.12109375 8.11328125 7.12109375 8.11328125 6.99609375 10.42578125 C4.68359375 10.73828125 4.68359375 10.73828125 1.99609375 10.42578125 C1.58359375 9.60078125 1.17109375 8.77578125 0.74609375 7.92578125 C0.16859375 7.10078125 -0.40890625 6.27578125 -1.00390625 5.42578125 C-4.04056726 4.96403494 -6.95437751 5.13808986 -10.00390625 5.42578125 C-11.97133543 10.1707575 -12.16011388 13.41554819 -11.00390625 18.42578125 C-9.0475665 20.83699984 -9.0475665 20.83699984 -5.37890625 20.55078125 C-4.26515625 20.50953125 -3.15140625 20.46828125 -2.00390625 20.42578125 C-1.67390625 19.43578125 -1.34390625 18.44578125 -1.00390625 17.42578125 C-2.65390625 17.09578125 -4.30390625 16.76578125 -6.00390625 16.42578125 C-5.67390625 15.10578125 -5.34390625 13.78578125 -5.00390625 12.42578125 C-3.54510516 12.56685872 -2.08687074 12.7138054 -0.62890625 12.86328125 C0.18320313 12.94449219 0.9953125 13.02570313 1.83203125 13.109375 C3.99609375 13.42578125 3.99609375 13.42578125 5.99609375 14.42578125 C5.76778674 16.05397071 5.51265799 17.67841615 5.24609375 19.30078125 C5.106875 20.20570313 4.96765625 21.110625 4.82421875 22.04296875 C3.99609375 24.42578125 3.99609375 24.42578125 2.16015625 25.7265625 C-2.5590276 27.25135295 -6.67598534 26.88544618 -11.25390625 25.30078125 C-14.67673348 22.96703541 -16.20063019 21.17104691 -18.00390625 17.42578125 C-18.84180588 12.65488337 -18.49294298 9.36892351 -16.25390625 5.05078125 C-11.48133835 -0.51721463 -7.23091007 -2.07201517 0 0 Z " fill="#1C4487" transform="translate(98.00390625,273.57421875)"/>
<path d="M0 0 C2.6796875 0.3359375 2.6796875 0.3359375 4.671875 2.171875 C5.29320312 3.00976562 5.91453125 3.84765625 6.5546875 4.7109375 C7.23144531 5.61714844 7.90820312 6.52335937 8.60546875 7.45703125 C9.28996094 8.40707031 9.97445313 9.35710937 10.6796875 10.3359375 C11.72189453 11.71458984 11.72189453 11.71458984 12.78515625 13.12109375 C16.49851139 18.15376469 16.49851139 18.15376469 17.6796875 20.3359375 C17.3496875 21.3259375 17.0196875 22.3159375 16.6796875 23.3359375 C15.0296875 23.0059375 13.3796875 22.6759375 11.6796875 22.3359375 C11.3496875 21.3459375 11.0196875 20.3559375 10.6796875 19.3359375 C7.0496875 19.6659375 3.4196875 19.9959375 -0.3203125 20.3359375 C-0.6503125 22.6459375 -0.9803125 24.9559375 -1.3203125 27.3359375 C-2.9703125 27.6659375 -4.6203125 27.9959375 -6.3203125 28.3359375 C-6.50694082 22.41251687 -5.79251801 16.80843987 -4.8828125 10.9609375 C-4.74810547 10.04699219 -4.61339844 9.13304687 -4.47460938 8.19140625 C-3.29979517 0.47774812 -3.29979517 0.47774812 0 0 Z " fill="#184185" transform="translate(246.3203125,274.6640625)"/>
<path d="M0 0 C1.65 0 3.3 0 5 0 C5 7.26 5 14.52 5 22 C7.64 22 10.28 22 13 22 C13.66 15.4 14.32 8.8 15 2 C16.65 2 18.3 2 20 2 C20.48904945 17.81259878 20.48904945 17.81259878 18 24 C15.15712212 26.81149954 13.01376146 27.43141177 9.0625 27.4375 C8.22847656 27.45683594 7.39445313 27.47617187 6.53515625 27.49609375 C2.93531038 26.7916555 1.41914115 25.77451941 -1 23 C-1.63418119 19.99871384 -1.51719727 17.11483795 -1.375 14.0625 C-1.36082031 13.26392578 -1.34664062 12.46535156 -1.33203125 11.64257812 C-1.23300774 7.65853221 -0.9578023 3.88616506 0 0 Z " fill="#163F84" transform="translate(133,282)"/>
<path d="M0 0 C0.85464844 -0.01675781 1.70929688 -0.03351563 2.58984375 -0.05078125 C5.56077644 0.38570649 6.93915524 1.20886146 9.0625 3.3125 C9.0625 4.3025 9.0625 5.2925 9.0625 6.3125 C6.6875 6.9375 6.6875 6.9375 4.0625 7.3125 C3.4025 6.6525 2.7425 5.9925 2.0625 5.3125 C-0.4375 4.97916667 -0.4375 4.97916667 -2.9375 5.3125 C-5.3316161 7.7066161 -5.23348923 8.35036311 -5.25 11.625 C-5.17902682 15.62530631 -4.43683025 18.08419843 -1.9375 21.3125 C1.00341587 21.12834568 1.00341587 21.12834568 4.0625 20.3125 C5.49887698 18.36086882 5.49887698 18.36086882 6.0625 16.3125 C7.7125 16.3125 9.3625 16.3125 11.0625 16.3125 C10.81749132 19.90596057 10.426206 21.86666683 8.125 24.6875 C3.74799218 27.00999395 -0.09774661 27.49537902 -4.9375 26.3125 C-8.11588466 23.85531507 -10.15382195 20.87985609 -11.9375 17.3125 C-12.51868751 12.54866799 -12.38838085 9.16761886 -10.125 4.875 C-6.91268341 1.11200057 -4.83876583 0.02182902 0 0 Z " fill="#184185" transform="translate(224.9375,279.6875)"/>
<path d="M0 0 C1.47906892 -0.02689216 2.95827483 -0.04634621 4.4375 -0.0625 C5.26121094 -0.07410156 6.08492187 -0.08570313 6.93359375 -0.09765625 C9 0 9 0 10 1 C10.125 3.5 10.125 3.5 10 6 C9 7 9 7 6.93359375 7.09765625 C6.10988281 7.08605469 5.28617188 7.07445312 4.4375 7.0625 C3.61121094 7.05347656 2.78492188 7.04445313 1.93359375 7.03515625 C1.29550781 7.02355469 0.65742188 7.01195312 0 7 C0 4.69 0 2.38 0 0 Z " fill="#EEF0F5" transform="translate(196,298)"/>
<path d="M0 0 C7.75 0.75 7.75 0.75 10 3 C9.67 4.32 9.34 5.64 9 7 C5.7 7 2.4 7 -1 7 C-0.67 4.69 -0.34 2.38 0 0 Z " fill="#EFF0F5" transform="translate(114,283)"/>
<path d="M0 0 C2.33294775 -0.04241723 4.66702567 -0.04092937 7 0 C8 1 8 1 8.125 3.5 C8 6 8 6 7 7 C4.66702567 7.04092937 2.33294775 7.04241723 0 7 C0 4.69 0 2.38 0 0 Z " fill="#F7F8FA" transform="translate(163,289)"/>
<path d="M0 0 C2.64 0 5.28 0 8 0 C8.38218767 1.65614657 8.71395102 3.32457024 9 5 C8 6 8 6 6.15234375 6.09765625 C4.1015625 6.06510417 2.05078125 6.03255208 0 6 C0 4.02 0 2.04 0 0 Z " fill="#F2F3F7" transform="translate(195,288)"/>
<path d="M0 0 C2.5 2.3125 2.5 2.3125 5 5 C5 5.99 5 6.98 5 8 C3.35 8.33 1.7 8.66 0 9 C0 6.03 0 3.06 0 0 Z " fill="#EDEFF4" transform="translate(247,282)"/>
</svg>
