<?xml version="1.0" encoding="UTF-8"?>
<svg version="1.1" xmlns="http://www.w3.org/2000/svg" width="824" height="240">
<path d="M0 0 C0.65663635 0.00054382 1.31327271 0.00108765 1.98980713 0.00164795 C12.95445369 0.04325256 22.94625869 1.00297141 33.375 4.375 C34.38143555 4.68848389 34.38143555 4.68848389 35.40820312 5.00830078 C66.91659639 15.0521654 90.95270788 37.17461055 106.01196289 66.31713867 C113.47098536 81.30633726 117.57706195 97.64248082 118.375 114.375 C118.45427734 115.77492187 118.45427734 115.77492187 118.53515625 117.203125 C119.52125793 150.64483416 106.41532063 180.85938182 84.375 205.375 C83.80523437 206.02855469 83.23546875 206.68210938 82.6484375 207.35546875 C64.94512204 226.46597083 37.2494005 238.74411115 11.51757812 240.66259766 C7.65243645 240.77456641 3.80397697 240.7922579 -0.0625 240.75 C-0.73953979 240.74501495 -1.41657959 240.74002991 -2.11413574 240.7348938 C-35.02008452 240.45142234 -62.98780052 227.69474723 -86.11547852 204.36791992 C-109.69735761 179.72945605 -119.45562345 147.89517969 -118.87109375 114.3515625 C-117.82190296 81.49779719 -102.77863743 52.14027466 -79.24609375 29.6640625 C-57.65618854 9.7056508 -29.12861057 -0.04098947 0 0 Z " fill="#108DE7" transform="translate(118.625,-0.375)"/>
<path d="M0 0 C0.99773437 0.57041016 0.99773437 0.57041016 2.015625 1.15234375 C4.28660047 2.55843838 5.78991205 3.57982409 7 6 C7.09208458 8.27726174 7.11749598 10.55730647 7.11352539 12.83642578 C7.11367142 13.53897491 7.11381744 14.24152405 7.1139679 14.96536255 C7.11327014 17.29204373 7.10548419 19.61864527 7.09765625 21.9453125 C7.09579158 23.55671139 7.09436791 25.16811084 7.09336853 26.7795105 C7.0895472 31.02428752 7.07972018 35.26903042 7.06866455 39.51379395 C7.05844218 43.84382668 7.05386914 48.17386493 7.04882812 52.50390625 C7.03809758 61.00261984 7.02102575 69.50130568 7 78 C1.96622109 77.07137194 -2.296945 75.22819474 -6.96484375 73.15625 C-12.0060024 71.23580861 -16.82543234 70.84580477 -22.1875 70.8125 C-23.21230469 70.79832031 -24.23710937 70.78414063 -25.29296875 70.76953125 C-36.78512246 71.48400656 -47.20463128 75.21902181 -58 78.9375 C-102.89853438 94.30210453 -102.89853438 94.30210453 -123 85 C-126.87094615 83.03043836 -129.43547475 81.15504465 -131 77 C-131.24050903 73.8994751 -131.24050903 73.8994751 -131.22705078 70.21191406 C-131.22734283 69.53833359 -131.22763489 68.86475311 -131.22793579 68.17076111 C-131.22654641 65.95224974 -131.21100401 63.73407744 -131.1953125 61.515625 C-131.19158097 59.97434676 -131.18873466 58.43306613 -131.18673706 56.89178467 C-131.17911161 52.84097714 -131.15947253 48.7903137 -131.1373291 44.73956299 C-131.1168472 40.6037389 -131.10773033 36.46789147 -131.09765625 32.33203125 C-131.07622555 24.22128815 -131.04210281 16.11066201 -131 8 C-128 7 -128 7 -125.328125 8.14453125 C-124.31234375 8.69496094 -123.2965625 9.24539062 -122.25 9.8125 C-115.34215764 13.54096363 -109.31586879 15.29550082 -101.4375 15.375 C-100.17808594 15.40335938 -98.91867188 15.43171875 -97.62109375 15.4609375 C-84.66383767 14.70030075 -71.64710227 8.40975466 -59.625 3.875 C-57.09192386 2.92092145 -54.55826039 1.96857833 -52.02255249 1.02151489 C-50.46046214 0.4380176 -48.89981583 -0.14936729 -47.3409729 -0.7414856 C-32.20334732 -6.3991457 -14.45871182 -8.51511384 0 0 Z " fill="#FDFEFE" transform="translate(180,78)"/>
<path d="M0 0 C12.21647803 9.2747801 19.20882876 20.78075633 21.87374878 35.8346405 C22.73370702 42.76804994 22.53857773 49.75193382 22.4921875 56.7265625 C22.48844945 58.39235767 22.48560623 60.05815507 22.48361206 61.72395325 C22.47603786 66.07221733 22.45644405 70.42034419 22.4342041 74.76855469 C22.41361051 79.22003321 22.40458167 83.67153427 22.39453125 88.12304688 C22.37319121 96.83079864 22.33806105 105.53841322 22.296875 114.24609375 C13.386875 114.24609375 4.476875 114.24609375 -4.703125 114.24609375 C-4.703125 105.66609375 -4.703125 97.08609375 -4.703125 88.24609375 C-21.203125 88.24609375 -37.703125 88.24609375 -54.703125 88.24609375 C-54.703125 96.82609375 -54.703125 105.40609375 -54.703125 114.24609375 C-58.9725 114.26671875 -63.241875 114.28734375 -67.640625 114.30859375 C-69.66304321 114.32224976 -69.66304321 114.32224976 -71.72631836 114.33618164 C-73.3061853 114.33992798 -73.3061853 114.33992798 -74.91796875 114.34375 C-76.54400024 114.35160522 -76.54400024 114.35160522 -78.20288086 114.35961914 C-80.703125 114.24609375 -80.703125 114.24609375 -81.703125 113.24609375 C-81.80790004 111.17835607 -81.84169108 109.10700078 -81.84838867 107.03662109 C-81.85174728 106.38757309 -81.8551059 105.73852509 -81.85856628 105.06980896 C-81.86812007 102.90719722 -81.87002304 100.74466284 -81.87109375 98.58203125 C-81.87430846 97.07239755 -81.8776727 95.56276416 -81.88117981 94.0531311 C-81.88718569 90.87362957 -81.88901874 87.69415525 -81.88842773 84.51464844 C-81.88832721 80.48159166 -81.90185772 76.44871533 -81.91919994 72.41570091 C-81.930452 69.28741697 -81.93234278 66.15917443 -81.93181801 63.03087234 C-81.93298305 61.54724137 -81.9373197 60.06360878 -81.94515038 58.57999802 C-82.03443375 39.88068884 -80.71782031 22.80681118 -67.703125 8.24609375 C-67.15785156 7.61960937 -66.61257813 6.993125 -66.05078125 6.34765625 C-49.08425991 -11.93626557 -20.43086189 -13.25644074 0 0 Z M-48.01171875 26.28125 C-56.59425951 36.25126848 -54.703125 47.15312176 -54.703125 60.24609375 C-38.203125 60.24609375 -21.703125 60.24609375 -4.703125 60.24609375 C-3.58141718 40.54219424 -3.58141718 40.54219424 -12.015625 25.30859375 C-22.89625544 15.49061511 -37.64665934 16.37685989 -48.01171875 26.28125 Z " fill="#0F8CE7" transform="translate(801.703125,67.75390625)"/>
<path d="M0 0 C10.75579075 9.2839457 18.11928129 19.67338027 20.41015625 33.9921875 C20.49753394 36.608274 20.53672783 39.19644539 20.52368164 41.81176758 C20.52382767 42.58302979 20.52397369 43.35429199 20.52412415 44.14892578 C20.52343003 46.6865525 20.51566117 49.22410492 20.5078125 51.76171875 C20.50594654 53.52577169 20.50452348 55.28982514 20.50352478 57.05387878 C20.49971363 61.6882369 20.48989534 66.32256349 20.4788208 70.95690918 C20.46857651 75.68936741 20.4640207 80.42183075 20.45898438 85.15429688 C20.44827179 94.4336098 20.43068637 103.71289109 20.41015625 112.9921875 C11.83015625 112.9921875 3.25015625 112.9921875 -5.58984375 112.9921875 C-5.58984375 104.4121875 -5.58984375 95.8321875 -5.58984375 86.9921875 C-22.08984375 86.9921875 -38.58984375 86.9921875 -55.58984375 86.9921875 C-55.58984375 95.5721875 -55.58984375 104.1521875 -55.58984375 112.9921875 C-64.49984375 112.9921875 -73.40984375 112.9921875 -82.58984375 112.9921875 C-82.65790061 103.15989091 -82.71282097 93.32775342 -82.74528027 83.49527359 C-82.7608672 78.92856268 -82.78197642 74.36202272 -82.81616211 69.79541016 C-82.84900638 65.37983291 -82.86674905 60.96441902 -82.87447548 56.54872894 C-82.87997437 54.87280459 -82.89071097 53.19688812 -82.90703392 51.52103424 C-83.07657367 33.37587865 -79.95198732 17.7746039 -66.9453125 4.1796875 C-48.83127616 -12.6426348 -19.992197 -15.49922965 0 0 Z M-50.58984375 26.9921875 C-57.02087531 35.10253887 -57.23878632 46.07694864 -56.58984375 55.9921875 C-56.25984375 56.9821875 -55.92984375 57.9721875 -55.58984375 58.9921875 C-39.08984375 58.9921875 -22.58984375 58.9921875 -5.58984375 58.9921875 C-4.91317709 40.24449414 -4.91317709 40.24449414 -12.80078125 24.75 C-17.96497655 19.67600898 -23.9120148 17.22390658 -31.11328125 16.8671875 C-39.33911937 17.28237176 -45.11045164 21.01579838 -50.58984375 26.9921875 Z " fill="#0F8CE7" transform="translate(509.58984375,69.0078125)"/>
<path d="M0 0 C63.92841163 0 63.92841163 0 82 14 C82.82628906 14.60585937 83.65257812 15.21171875 84.50390625 15.8359375 C96.95785911 26.63326127 102.68151955 43.62978419 104.25 59.53515625 C104.71591676 75.58016474 98.24247104 92.49375876 87.5859375 104.5078125 C62.43769894 128.16945568 33.97396963 123 0 123 C0 82.41 0 41.82 0 0 Z M27 27 C27 49.44 27 71.88 27 95 C37.47452499 97.61863125 50.9774061 96.6738045 60.4375 91.375 C69.65872895 85.1063813 74.73724055 76.88686153 77 66 C77.89703926 56.1670696 75.98154815 47.51621101 69.66015625 39.8125 C62.48098083 31.97452966 55.56560523 28.50937218 45 27 C39.06 27 33.12 27 27 27 Z " fill="#128DE7" transform="translate(280,59)"/>
<path d="M0 0 C15.80400238 16.64541917 15.63260817 37.90842423 15.51831055 59.38598633 C15.50013304 62.91169563 15.49780099 66.43713942 15.49804688 69.96289062 C15.4777218 82.59076021 15.20491491 95.15246982 14.3125 107.75 C10.00001391 107.77886537 5.68755238 107.79675255 1.375 107.8125 C0.14330078 107.82087891 -1.08839844 107.82925781 -2.35742188 107.83789062 C-3.52724609 107.84111328 -4.69707031 107.84433594 -5.90234375 107.84765625 C-7.52837524 107.85551147 -7.52837524 107.85551147 -9.18725586 107.86352539 C-11.6875 107.75 -11.6875 107.75 -12.6875 106.75 C-12.79116333 104.4196412 -12.83112037 102.11796397 -12.8293457 99.78686523 C-12.83282013 99.05829819 -12.83629456 98.32973114 -12.83987427 97.5790863 C-12.84724567 95.99069933 -12.85258364 94.40230195 -12.85616493 92.8139019 C-12.86331881 90.29536947 -12.87897999 87.7770332 -12.89750671 85.25856018 C-12.95000653 78.09549764 -12.9978966 70.93253761 -13.01342773 63.76928711 C-13.0235435 59.3912692 -13.05296646 55.01373733 -13.09474754 50.63591194 C-13.10701982 48.97070058 -13.11218572 47.30542041 -13.10994911 45.64016533 C-13.09972705 35.53864772 -13.2600464 28.16133218 -19.9375 20 C-25.38055259 15.54659334 -31.4666396 12.40740443 -38.6875 12.75 C-45.4706203 14.03500105 -51.84340968 16.14478047 -56.24150085 21.71987915 C-60.8920894 28.74831316 -61.54505457 34.40355069 -61.45703125 42.7109375 C-61.46836594 43.93672516 -61.47970062 45.16251282 -61.49137878 46.42544556 C-61.52192452 50.32573255 -61.51232915 54.22463571 -61.5 58.125 C-61.5142869 61.9785882 -61.53692021 65.83206526 -61.56027222 69.68560791 C-61.57467776 72.18506095 -61.58557172 74.68453691 -61.59280396 77.184021 C-61.63522556 87.40377056 -62.07621157 97.5488187 -62.6875 107.75 C-71.2675 107.75 -79.8475 107.75 -88.6875 107.75 C-89.5805853 104.17765882 -89.81940346 101.5291631 -89.83276367 97.89013672 C-89.83914352 96.70725067 -89.84552338 95.52436462 -89.85209656 94.30563354 C-89.85320938 93.02657135 -89.8543222 91.74750916 -89.85546875 90.4296875 C-89.8586883 89.08847011 -89.86205288 87.74725306 -89.86555481 86.40603638 C-89.87154458 83.58660066 -89.87339541 80.76719554 -89.87280273 77.94775391 C-89.87272216 75.0909177 -89.87955057 72.23424416 -89.89331055 69.37744141 C-90.14154821 17.02131239 -90.14154821 17.02131239 -73.4375 -0.9375 C-52.50461313 -20.76865598 -20.66786921 -19.18194397 0 0 Z " fill="#158EE6" transform="translate(662.6875,74.25)"/>
</svg>
