<svg width="191" height="35" viewBox="0 0 191 35" fill="none" xmlns="http://www.w3.org/2000/svg">
<path d="M0.343521 33.9531V1.1875H17.406V6.34375H5.59352V15.0625H12.9998V20.3125H5.59352V33.9531H0.343521ZM22.0804 24.8594V9.4375C22.0804 7.78125 22.7835 6.09375 24.1898 4.375C26.0648 2.125 28.4398 0.984375 31.3148 0.953125V6.15625C29.6898 6.1875 28.471 7.0625 27.6585 8.78125C27.4085 9.34375 27.2835 9.8125 27.2835 10.1875V24.8594C27.2835 26.5469 28.1585 27.7969 29.9085 28.6094C30.4398 28.8594 30.8929 28.9844 31.2679 28.9844V34.2344C29.4866 34.2344 27.7054 33.5938 25.9241 32.3125C23.3929 30.4375 22.1116 27.9531 22.0804 24.8594ZM33.846 34.2344V28.9844C34.6585 28.9844 35.5023 28.6094 36.3773 27.8594C37.3148 27.0156 37.7991 26.0156 37.8304 24.8594V10.1875C37.8304 9.25 37.4241 8.34375 36.6116 7.46875C35.8304 6.625 34.9085 6.1875 33.846 6.15625V0.953125C37.0023 0.953125 39.5335 2.3125 41.4398 5.03125C42.5335 6.59375 43.0804 8.0625 43.0804 9.4375V24.8594C43.0804 28.3281 41.5335 30.9844 38.4398 32.8281C36.8148 33.7656 35.2835 34.2344 33.846 34.2344ZM48.1298 24.8594V9.4375C48.1298 7.78125 48.8329 6.09375 50.2392 4.375C52.1142 2.125 54.4892 0.984375 57.3642 0.953125V6.15625C55.7392 6.1875 54.5204 7.0625 53.7079 8.78125C53.4579 9.34375 53.3329 9.8125 53.3329 10.1875V24.8594C53.3329 26.5469 54.2079 27.7969 55.9579 28.6094C56.4892 28.8594 56.9423 28.9844 57.3173 28.9844V34.2344C55.536 34.2344 53.7548 33.5938 51.9735 32.3125C49.4423 30.4375 48.161 27.9531 48.1298 24.8594ZM59.8954 34.2344V28.9844C60.7079 28.9844 61.5517 28.6094 62.4267 27.8594C63.3642 27.0156 63.8485 26.0156 63.8798 24.8594V10.1875C63.8798 9.25 63.4735 8.34375 62.661 7.46875C61.8798 6.625 60.9579 6.1875 59.8954 6.15625V0.953125C63.0517 0.953125 65.5829 2.3125 67.4892 5.03125C68.5829 6.59375 69.1298 8.0625 69.1298 9.4375V24.8594C69.1298 28.3281 67.5829 30.9844 64.4892 32.8281C62.8642 33.7656 61.3329 34.2344 59.8954 34.2344ZM73.101 6.29688V1.1875H93.3979V6.29688H85.8979V34H80.6479V6.29688H73.101ZM96.7129 26.5938L101.447 24.9062C101.635 26.9375 102.744 28.3438 104.775 29.125C105.15 29.25 105.338 29.3125 105.338 29.3125V34.1406C102.65 34.1406 100.369 32.9844 98.4941 30.6719C97.3379 29.2031 96.7441 27.8438 96.7129 26.5938ZM97.0879 10.0938C97.0879 6.6875 98.5566 4.125 101.494 2.40625C102.869 1.625 104.15 1.21875 105.338 1.1875V6.10938C104.369 6.26562 103.525 6.82812 102.807 7.79688C102.338 8.48438 102.104 9.21875 102.104 10C102.104 11.625 103.275 12.9219 105.619 13.8906C106.182 14.1094 107.057 14.4062 108.244 14.7812C109.744 15.25 110.791 15.625 111.385 15.9062C114.104 17.25 115.869 18.8438 116.682 20.6875C117.15 21.7812 117.385 22.9844 117.385 24.2969C117.385 27.0469 116.322 29.4375 114.197 31.4688C112.291 33.25 110.15 34.1406 107.775 34.1406V29.3125C108.963 29.25 110.025 28.6875 110.963 27.625C111.744 26.6875 112.135 25.6094 112.135 24.3906C112.135 22.4844 110.807 21.0469 108.15 20.0781C107.588 19.8594 106.713 19.5781 105.525 19.2344C104.213 18.8594 103.322 18.5625 102.854 18.3438C100.229 17.1875 98.541 15.7031 97.791 13.8906C97.3223 12.7969 97.0879 11.5312 97.0879 10.0938ZM107.775 6.10938V1.1875C110.463 1.1875 112.713 2.34375 114.525 4.65625C115.494 5.90625 116.01 7.04688 116.072 8.07812L111.244 9.67188C111.119 8.73438 110.76 7.96875 110.166 7.375C109.604 6.78125 109.072 6.42188 108.572 6.29688L107.775 6.10938ZM120.653 6.29688V1.1875H140.95V6.29688H133.45V34H128.2V6.29688H120.653ZM145.015 24.8594V9.4375C145.015 7.78125 145.718 6.09375 147.124 4.375C148.999 2.125 151.374 0.984375 154.249 0.953125V6.15625C152.624 6.1875 151.405 7.0625 150.593 8.78125C150.343 9.34375 150.218 9.8125 150.218 10.1875V24.8594C150.218 26.5469 151.093 27.7969 152.843 28.6094C153.374 28.8594 153.827 28.9844 154.202 28.9844V34.2344C152.421 34.2344 150.64 33.5938 148.859 32.3125C146.327 30.4375 145.046 27.9531 145.015 24.8594ZM156.78 34.2344V28.9844C157.593 28.9844 158.437 28.6094 159.312 27.8594C160.249 27.0156 160.734 26.0156 160.765 24.8594V10.1875C160.765 9.25 160.359 8.34375 159.546 7.46875C158.765 6.625 157.843 6.1875 156.78 6.15625V0.953125C159.937 0.953125 162.468 2.3125 164.374 5.03125C165.468 6.59375 166.015 8.0625 166.015 9.4375V24.8594C166.015 28.3281 164.468 30.9844 161.374 32.8281C159.749 33.7656 158.218 34.2344 156.78 34.2344ZM171.205 34V1.1875H176.455V34H171.205ZM178.845 19.1875V14.0781H181.986C184.267 14.0781 185.502 12.9688 185.689 10.75C185.689 10.5625 185.689 10.375 185.689 10.1875C185.47 7.71875 184.236 6.42188 181.986 6.29688H178.845V1.1875H182.408C188.095 1.28125 190.955 4.25 190.986 10.0938C190.986 14.625 189.549 17.4531 186.674 18.5781C185.486 18.9844 184.064 19.1875 182.408 19.1875C182.345 19.1875 181.158 19.1875 178.845 19.1875Z" fill="#FF3131"/>
</svg>
