<?xml version="1.0" encoding="UTF-8"?>
<svg version="1.1" xmlns="http://www.w3.org/2000/svg" width="500" height="500">
<path d="M0 0 C0.39155273 0.77375977 0.78310547 1.54751953 1.18652344 2.34472656 C13.27243973 26.15673327 25.61171998 49.53693582 42.8125 70.125 C43.2566626 70.65794678 43.7008252 71.19089355 44.15844727 71.73999023 C46.85380969 74.89040727 49.68588163 77.51292373 53 80 C53.14695312 79.26136719 53.29390625 78.52273437 53.4453125 77.76171875 C56.35723965 64.59110574 62.5314595 53.40205454 73.44921875 45.1484375 C84.4624621 38.12900767 97.35368396 35.81435495 110.2734375 37.40234375 C124.07833585 40.46406005 135.83542693 47.50409792 143.8125 59.25 C151.84858975 72.71789116 153.13761624 87.46804793 153.71807861 102.78494263 C156.15301574 163.13030263 181.53064121 233.74631798 218.13671875 282.15625 C221.29199656 286.34442144 224.2436385 290.66165416 227.1875 295 C231.42136637 301.23324525 235.68893227 307.44010245 240.00512695 313.61669922 C242.71408658 317.49545879 245.41124358 321.38232959 248.10595703 325.27099609 C249.31700782 327.01592078 250.53122262 328.75865647 251.74951172 330.49853516 C263.72497752 347.63211886 275.29112928 366.22140034 273 388 C271.35294515 396.17013649 268.77253109 402.92978232 263 409 C262.36320312 409.67675781 261.72640625 410.35351562 261.0703125 411.05078125 C247.75091267 424.0042635 230.23078767 426.51111173 212.44897461 426.421875 C169.64987643 425.41288502 128.0868026 406.0868026 98 376 C95.86238673 375.67250436 95.86238673 375.67250436 93.35768127 375.68908691 C91.88757316 375.66167671 91.88757316 375.66167671 90.38776588 375.63371277 C89.30791105 375.62374771 88.22805622 375.61378265 87.11547852 375.60351562 C85.41407746 375.57648308 85.41407746 375.57648308 83.67830467 375.54890442 C79.8910755 375.49154834 76.10382947 375.44872401 72.31640625 375.40625 C70.32269517 375.37879644 68.32898405 375.35133467 66.33528644 375.32292032 C57.22374999 375.19330477 48.11198657 375.09192278 39 375 C37.99133393 374.98980709 37.99133393 374.98980709 36.96229076 374.97940826 C15.27980295 374.76208427 -6.40320352 374.61418421 -28.08630371 374.47393799 C-37.34012052 374.41402133 -46.59390527 374.35073745 -55.84765625 374.28125 C-57.7263484 374.26717102 -57.7263484 374.26717102 -59.64299393 374.25280762 C-79.10662347 374.10060793 -98.5495415 373.73408042 -118 373 C-118 365.41 -118 357.82 -118 350 C-114.81754639 350.00112793 -111.63509277 350.00225586 -108.35620117 350.00341797 C-99.93670398 350.00564416 -91.51728827 349.99847835 -83.09780884 349.98150635 C-59.87872356 349.93683884 -36.66074301 349.95709973 -13.44180012 350.05693245 C-1.67156918 350.10574154 10.09762436 350.12797644 21.86791992 350.08935547 C32.21012761 350.05549229 42.55090857 350.07084586 52.89292842 350.14469516 C58.34433799 350.18194827 63.79333063 350.19540622 69.24472618 350.14938736 C74.36260382 350.10693009 79.47604566 350.13070812 84.59353828 350.20368958 C86.45981765 350.21896341 88.32647349 350.21082939 90.19249725 350.17637253 C99.45840967 350.01847008 106.15565246 350.35815563 113.12107545 356.95415008 C115.41054272 359.35937508 117.56195496 361.84788883 119.66004241 364.42091537 C122.28626747 367.51581304 125.47597326 369.88629007 128.75 372.25 C129.40210449 372.72904785 130.05420898 373.2080957 130.72607422 373.70166016 C156.18648747 391.9427657 191.11094711 406.08431418 222.95703125 402.5078125 C231.31009277 401.11384845 240.91608323 399.38982039 246.34375 392.2265625 C247.90895086 389.57690105 249.02795849 386.91612453 250 384 C248.72898437 383.88914062 247.45796875 383.77828125 246.1484375 383.6640625 C240.819621 383.06688548 235.7826463 381.81260388 230.625 380.375 C229.66819336 380.10993652 228.71138672 379.84487305 227.72558594 379.57177734 C218.27849396 376.8920283 209.10541688 373.66835533 200 370 C199.25830566 369.70399902 198.51661133 369.40799805 197.75244141 369.10302734 C176.12157315 360.34756328 157.12512657 347.78083336 140 332 C138.71248857 330.87024689 137.4210026 329.74500225 136.125 328.625 C132.15747276 325.17148439 128.2915236 321.6099606 124.42236328 318.04736328 C121.64541318 315.49474237 118.85036687 312.97031795 116 310.5 C112.6094922 307.5615599 109.3003097 304.53885858 106 301.5 C102.06715159 297.87909866 98.09785988 294.31041075 94.05859375 290.80859375 C90.54557698 287.7222052 87.10700182 284.55371222 83.65234375 281.40234375 C81.47539004 279.43058156 79.28161326 277.48634663 77.0625 275.5625 C73.11332633 272.13231424 69.26977695 268.58996482 65.42211914 265.04711914 C62.6452363 262.49459547 59.85027985 259.97024254 57 257.5 C53.0691075 254.0932265 49.24803427 250.56997215 45.421875 247.046875 C42.64505943 244.49444857 39.85019283 241.97016712 37 239.5 C33.0691075 236.0932265 29.24803427 232.56997215 25.421875 229.046875 C22.64505943 226.49444857 19.85019283 223.97016712 17 221.5 C13.0691075 218.0932265 9.24803427 214.56997215 5.421875 211.046875 C2.64505943 208.49444857 -0.14980717 205.97016712 -3 203.5 C-6.9308925 200.0932265 -10.75196573 196.56997215 -14.578125 193.046875 C-17.35494057 190.49444857 -20.14980717 187.97016712 -23 185.5 C-26.9308925 182.0932265 -30.75196573 178.56997215 -34.578125 175.046875 C-37.35494057 172.49444857 -40.14980717 169.97016712 -43 167.5 C-46.9308925 164.0932265 -50.75196573 160.56997215 -54.578125 157.046875 C-57.35494057 154.49444857 -60.14980717 151.97016712 -63 149.5 C-66.9308925 146.0932265 -70.75196573 142.56997215 -74.578125 139.046875 C-77.35494057 136.49444857 -80.14980717 133.97016712 -83 131.5 C-86.92343945 128.09968581 -90.73780087 124.58367918 -94.55615234 121.06665039 C-98.14685249 117.76533798 -101.78376048 114.52624887 -105.4765625 111.33984375 C-106.69172835 110.27112096 -107.8557106 109.1442894 -109 108 C-109.8175507 110.54013909 -110.62915186 113.08193231 -111.4375 115.625 C-111.66759766 116.33785156 -111.89769531 117.05070312 -112.13476562 117.78515625 C-117.20987293 133.81955323 -117.0325479 153.23078979 -109.76171875 168.62109375 C-107.47278787 171.71191173 -104.68241738 173.85273007 -101.625 176.125 C-100.35513354 177.09421272 -99.08694154 178.06562272 -97.8203125 179.0390625 C-97.1799707 179.53051758 -96.53962891 180.02197266 -95.87988281 180.52832031 C-93.01579382 182.77049283 -90.25731984 185.12868794 -87.5 187.5 C-83.08510066 191.28285466 -78.59079842 194.93275708 -74 198.5 C-68.85041818 202.50144106 -63.84459722 206.63487123 -58.89233398 210.87719727 C-55.02829148 214.17112556 -51.07442547 217.32602892 -47.0625 220.4375 C-41.64722092 224.64004474 -36.42803665 229.02405424 -31.25244141 233.51708984 C-26.67658362 237.4693736 -21.96523913 241.21393128 -17.18847656 244.91918945 C-12.55695011 248.52546083 -8.07032206 252.27983647 -3.60644531 256.09057617 C0.27332723 259.39878563 4.21659603 262.60919343 8.2109375 265.77734375 C11.80493717 268.64146954 15.37167157 271.53842212 18.9375 274.4375 C19.62755127 274.99816162 20.31760254 275.55882324 21.02856445 276.13647461 C24.08915722 278.62504139 27.14680741 281.11688148 30.19140625 283.625 C35.36701254 287.88641714 40.58616324 292.04433131 46 296 C45.12931435 300.51045718 42.52169571 303.25595381 39.5625 306.625 C39.05912109 307.21023438 38.55574219 307.79546875 38.03710938 308.3984375 C36.08165643 310.66291952 34.11615195 312.88384805 32 315 C25.9970018 310.22104048 20.03097152 305.40030787 14.09765625 300.53515625 C9.15264847 296.48364905 4.18580166 292.45893301 -0.77734375 288.4296875 C-3.66745503 286.08328727 -6.55522587 283.73404609 -9.44140625 281.3828125 C-10.16303955 280.79532227 -10.88467285 280.20783203 -11.62817383 279.60253906 C-13.01000707 278.47748417 -14.39137856 277.35186182 -15.7722168 276.22558594 C-16.71254761 275.46036621 -16.71254761 275.46036621 -17.671875 274.6796875 C-18.2194043 274.23351074 -18.76693359 273.78733398 -19.33105469 273.32763672 C-20.15718262 272.67045654 -20.15718262 272.67045654 -21 272 C-21.57253132 271.48584125 -22.14506264 270.97168249 -22.73494339 270.44194317 C-25.63382971 268.59650173 -27.48556256 268.61629139 -30.90985107 268.60127258 C-32.11857376 268.58873444 -33.32729645 268.57619629 -34.57264709 268.5632782 C-35.90878323 268.56445221 -37.24491914 268.56591135 -38.58105469 268.56762695 C-39.99050252 268.55860917 -41.3999425 268.5482819 -42.80937195 268.53674316 C-46.63341397 268.50914869 -50.45730728 268.49988538 -54.28143597 268.49388909 C-58.27868742 268.48451175 -62.27582753 268.45830891 -66.27301025 268.43388367 C-73.84124719 268.3901973 -81.40946255 268.3616635 -88.97778726 268.33856028 C-97.59446687 268.31152004 -106.21103458 268.26760783 -114.82763433 268.22227156 C-132.55169917 268.12939469 -150.27579011 268.05832638 -168 268 C-168 260.41 -168 252.82 -168 245 C-130.71 244.67 -93.42 244.34 -55 244 C-58.3 241.36 -61.6 238.72 -65 236 C-67.54434668 233.94065354 -70.08667484 231.87921833 -72.625 229.8125 C-74.00649585 228.68878417 -75.38800671 227.5650868 -76.76953125 226.44140625 C-77.46643066 225.87437988 -78.16333008 225.30735352 -78.88134766 224.72314453 C-80.98646524 223.01100811 -83.09263866 221.30018031 -85.19921875 219.58984375 C-91.83305089 214.20367331 -98.45990131 208.80944255 -105.0703125 203.39453125 C-108.83323029 200.31897311 -112.6034801 197.25249988 -116.375 194.1875 C-117.05369141 193.63578125 -117.73238281 193.0840625 -118.43164062 192.515625 C-119.40520508 191.72478516 -119.40520508 191.72478516 -120.3984375 190.91796875 C-121.32716675 190.1592749 -121.32716675 190.1592749 -122.2746582 189.38525391 C-123.76108665 188.19182034 -125.28557373 187.04607219 -126.81640625 185.91015625 C-135.65344954 178.17971945 -138.01234216 160.19210622 -139 149 C-141.01600174 116.04948338 -129.42795342 84.9484916 -108 60 C-82.61382898 31.32926397 -46.88780396 16.80575184 -11.98828125 3.16992188 C-10.09690406 2.42944152 -8.21702617 1.65824407 -6.35546875 0.84570312 C-4 0 -4 0 0 0 Z M-26.875 33.8125 C-27.55272461 34.10589264 -28.23044922 34.39928528 -28.92871094 34.7015686 C-56.63847516 46.75123433 -81.13076947 61.1333053 -99 86 C-94.82615431 90.23057757 -90.52398909 94.31183619 -86.1875 98.375 C-85.17719727 99.32632813 -85.17719727 99.32632813 -84.14648438 100.296875 C-80.09867093 104.09291058 -75.98629641 107.79767998 -71.79711914 111.43701172 C-69.5501454 113.391247 -67.33500574 115.37911246 -65.125 117.375 C-63.86042969 118.51582031 -63.86042969 118.51582031 -62.5703125 119.6796875 C-61.72210938 120.44539063 -60.87390625 121.21109375 -60 122 C-58.33359149 123.50028679 -56.66692647 125.00028872 -55 126.5 C-15 162.5 -15 162.5 25 198.5 C25.82242188 199.23992187 26.64484375 199.97984375 27.4921875 200.7421875 C29.18592894 202.26708244 30.87861169 203.79315402 32.5703125 205.3203125 C36.31564256 208.69912708 40.06518207 212.06895965 43.875 215.375 C47.84252724 218.82851561 51.7084764 222.3900394 55.57763672 225.95263672 C58.35458682 228.50525763 61.14963313 231.02968205 64 233.5 C67.9308925 236.9067735 71.75196573 240.43002785 75.578125 243.953125 C78.35494057 246.50555143 81.14980717 249.02983288 84 251.5 C87.9308925 254.9067735 91.75196573 258.43002785 95.578125 261.953125 C98.35494057 264.50555143 101.14980717 267.02983288 104 269.5 C107.9308925 272.9067735 111.75196573 276.43002785 115.578125 279.953125 C118.35494057 282.50555143 121.14980717 285.02983288 124 287.5 C127.39050844 290.43844065 130.69966982 293.46116302 134 296.5 C137.96276863 300.14800947 141.95696887 303.75018619 146.03125 307.2734375 C147.44260209 308.51117088 148.83657782 309.7688268 150.21875 311.0390625 C172.56456199 331.57109104 197.87025763 345.55642104 226.5 355.3125 C227.61266235 355.69474731 227.61266235 355.69474731 228.74780273 356.0847168 C233.17208787 357.55247251 237.3657275 358.48169321 242 359 C240.45662257 354.48133386 237.97733271 350.8076781 235.25 346.9375 C234.77046875 346.24849609 234.2909375 345.55949219 233.796875 344.84960938 C232.20315258 342.56269902 230.60200446 340.28111505 229 338 C227.84871641 336.3556381 226.6976797 334.71110333 225.546875 333.06640625 C223.76372166 330.51872715 221.97998714 327.97146625 220.19433594 325.42553711 C216.1543253 319.66284035 212.14450019 313.88081995 208.18139648 308.06494141 C205.712432 304.45158155 203.19899238 300.87823393 200.62890625 297.3359375 C192.62329084 286.23927422 185.7456104 274.87181045 179.44702148 262.72387695 C177.35469661 258.78527925 175.16590079 254.89862142 173 251 C159.8 251 146.6 251 133 251 C133 243.74 133 236.48 133 229 C142.9 229 152.8 229 163 229 C162.113125 226.64875 161.22625 224.2975 160.3125 221.875 C157.77815987 215.14625034 155.3458272 208.38753634 152.98046875 201.59765625 C152.24398476 199.10670034 152.24398476 199.10670034 151 198 C149.34261557 197.90653085 147.68125356 197.88255023 146.02124023 197.88647461 C144.96021591 197.88655014 143.89919159 197.88662567 142.80601501 197.88670349 C141.07479149 197.89444542 141.07479149 197.89444542 139.30859375 197.90234375 C138.13361832 197.9037587 136.95864288 197.90517365 135.74806213 197.90663147 C131.97784936 197.91225008 128.20769496 197.92480574 124.4375 197.9375 C121.88867273 197.9425126 119.33984453 197.94707592 116.79101562 197.95117188 C110.5273211 197.96222556 104.26367046 197.97950266 98 198 C98 190.41 98 182.82 98 175 C112.85 175 127.7 175 143 175 C141.41676088 166.99950263 141.41676088 166.99950263 139.5625 159.08984375 C139.30726563 158.07986328 139.05203125 157.06988281 138.7890625 156.02929688 C138.52867187 155.00900391 138.26828125 153.98871094 138 152.9375 C136.23039113 145.97733047 134.51930387 139.01947605 133 132 C132.27635254 131.96036133 131.55270508 131.92072266 130.80712891 131.87988281 C97.47252986 129.96719857 66.95817298 123.19899897 41 101 C40.48066895 100.55897949 39.96133789 100.11795898 39.42626953 99.66357422 C32.1424749 93.41163172 25.79251127 86.67533465 20 79 C19.22269531 77.97648437 18.44539063 76.95296875 17.64453125 75.8984375 C6.51942832 60.93716904 -2.50569503 44.55960464 -11 28 C-16.24647033 28 -22.04804842 31.72138286 -26.875 33.8125 Z M81.6953125 68.70703125 C76.21930748 76.11351731 74.93459506 83.93166957 76 93 C76.41385768 96.20513208 76.41385768 96.20513208 78 99 C80.56220855 100.4034054 82.64053281 101.31202946 85.375 102.1875 C86.09236328 102.4352417 86.80972656 102.6829834 87.54882812 102.93823242 C99.27904393 106.90357808 110.61553973 109.20201298 123 109.0625 C123.77472656 109.05798828 124.54945313 109.05347656 125.34765625 109.04882812 C127.23180524 109.03719758 129.11591365 109.01926906 131 109 C130.81017832 85.29835055 130.81017832 85.29835055 118.8125 65.6875 C107.57196814 56.69997235 91.1748539 58.17207532 81.6953125 68.70703125 Z " fill="#D30E0E" transform="translate(205,37)"/>
<path d="M0 0 C36.96 0 73.92 0 112 0 C112 7.26 112 14.52 112 22 C75.04 22 38.08 22 0 22 C0 14.74 0 7.48 0 0 Z " fill="#D50E0E" transform="translate(14,337)"/>
<path d="M0 0 C36.63 0 73.26 0 111 0 C111 0.33 111 0.66 111 1 C75.03 1 39.06 1 2 1 C2 7.6 2 14.2 2 21 C48.53 21 95.06 21 143 21 C143 21.66 143 22.32 143 23 C95.81 23 48.62 23 0 23 C0 15.41 0 7.82 0 0 Z " fill="#B41B1A" transform="translate(37,282)"/>
<path d="M0 0 C17.38813668 -0.03238387 34.77283515 0.0562281 52.16015625 0.21875 C54.65791233 0.24126815 57.15566931 0.26368642 59.65342712 0.28601074 C66.13533439 0.34420578 72.61722875 0.40373071 79.09912109 0.46356201 C85.75031806 0.52471091 92.40152669 0.58456147 99.05273438 0.64453125 C112.03516778 0.76177209 125.01758833 0.88037788 138 1 C138 1.33 138 1.66 138 2 C93.12 2 48.24 2 2 2 C1.67 3.32 1.34 4.64 1 6 C0.67 6 0.34 6 0 6 C0 4.02 0 2.04 0 0 Z " fill="#B81717" transform="translate(87,387)"/>
<path d="M0 0 C1.98 1.32 3.96 2.64 6 4 C5.50485982 8.34037775 2.68886128 11.08612375 -0.0625 14.25 C-0.53494141 14.80429687 -1.00738281 15.35859375 -1.49414062 15.9296875 C-2.65658967 17.291749 -3.82747855 18.64659956 -5 20 C-5.66 18.68 -6.32 17.36 -7 16 C-6.01 15.67 -5.02 15.34 -4 15 C-3.67 13.35 -3.34 11.7 -3 10 C-2.67 10.66 -2.34 11.32 -2 12 C-1.34 12 -0.68 12 0 12 C0 11.34 0 10.68 0 10 C0.66 10 1.32 10 2 10 C2 9.01 2 8.02 2 7 C1.34 7 0.68 7 0 7 C0 7.66 0 8.32 0 9 C-1.32 8.67 -2.64 8.34 -4 8 C-3.34 7.67 -2.68 7.34 -2 7 C-1.26924352 4.6859378 -0.59861742 2.35171131 0 0 Z " fill="#C51313" transform="translate(245,329)"/>
<path d="M0 0 C0.66 0.33 1.32 0.66 2 1 C1.67 1.66 1.34 2.32 1 3 C0.34 3 -0.32 3 -1 3 C-1 4.65 -1 6.3 -1 8 C-2.65 8 -4.3 8 -6 8 C-6 8.99 -6 9.98 -6 11 C-7.65 11 -9.3 11 -11 11 C-11 11.99 -11 12.98 -11 14 C-11.556875 14.226875 -12.11375 14.45375 -12.6875 14.6875 C-15.6469509 16.36718835 -17.66126784 18.54133285 -20 21 C-21 22 -22 23 -23 24 C-23.66 23.67 -24.32 23.34 -25 23 C-7.75536124 5.34258219 -7.75536124 5.34258219 0 0 Z " fill="#C01112" transform="translate(120,76)"/>
<path d="M0 0 C5.39882424 4.59474404 10.71333087 9.27676273 16 14 C13.14397493 14 11.51615684 13.6377317 8.875 12.6875 C7.81925781 12.32205078 7.81925781 12.32205078 6.7421875 11.94921875 C5 11 5 11 4 8 C4.33 7.34 4.66 6.68 5 6 C3.35 5.67 1.7 5.34 0 5 C0 3.35 0 1.7 0 0 Z " fill="#C71111" transform="translate(306,303)"/>
<path d="M0 0 C3.63 1.65 7.26 3.3 11 5 C8.05096298 6.96602468 6.48032201 7.73897585 3 8 C1.1875 6.5625 1.1875 6.5625 0 5 C-0.33 5.66 -0.66 6.32 -1 7 C-1.66 6.34 -2.32 5.68 -3 5 C-3 4.01 -3 3.02 -3 2 C-2.34 2 -1.68 2 -1 2 C-0.67 1.34 -0.34 0.68 0 0 Z " fill="#C91211" transform="translate(355,423)"/>
<path d="M0 0 C2.125 5.625 2.125 5.625 1 9 C0.34 9 -0.32 9 -1 9 C-1 8.34 -1 7.68 -1 7 C-2.98 7.33 -4.96 7.66 -7 8 C-7 5 -7 5 -5.5 3.3125 C-4.7575 2.6628125 -4.7575 2.6628125 -4 2 C-4.66 1.67 -5.32 1.34 -6 1 C-4 0 -4 0 0 0 Z " fill="#CA1214" transform="translate(205,37)"/>
<path d="M0 0 C0.89138672 0.27263672 0.89138672 0.27263672 1.80078125 0.55078125 C8.17086777 2.48261153 14.57058358 4.27652526 21 6 C21 6.33 21 6.66 21 7 C18.93673023 6.91239411 16.8743284 6.80420727 14.8125 6.6875 C13.66394531 6.62949219 12.51539063 6.57148438 11.33203125 6.51171875 C7.85319896 5.97745494 5.85468362 5.0052674 3 3 C2.67 3.66 2.34 4.32 2 5 C1.34 4.67 0.68 4.34 0 4 C0 2.68 0 1.36 0 0 Z " fill="#BA1516" transform="translate(286,137)"/>
<path d="M0 0 C0.99 0 1.98 0 3 0 C3 0.66 3 1.32 3 2 C2.01 2.495 2.01 2.495 1 3 C1.66 3.66 2.32 4.32 3 5 C2.01 6.485 2.01 6.485 1 8 C1.66 8.33 2.32 8.66 3 9 C3.40729228 11.32156597 3.74438677 13.6568787 4 16 C1.66635648 13.07096942 -0.04960836 10.11431797 -1.6875 6.75 C-2.34298828 5.41195312 -2.34298828 5.41195312 -3.01171875 4.046875 C-3.50091797 3.03367187 -3.50091797 3.03367187 -4 2 C-2.68 2 -1.36 2 0 2 C0 1.34 0 0.68 0 0 Z " fill="#C11213" transform="translate(201,70)"/>
<path d="M0 0 C6.54849313 1.16204993 12.74538144 2.73383385 19 5 C19 5.33 19 5.66 19 6 C15.7 6.33 12.4 6.66 9 7 C9 6.01 9 5.02 9 4 C8.01 4 7.02 4 6 4 C6 3.34 6 2.68 6 2 C4.02 2 2.04 2 0 2 C0 1.34 0 0.68 0 0 Z " fill="#B41818" transform="translate(427,391)"/>
<path d="M0 0 C0 0.99 0 1.98 0 3 C4.29 3 8.58 3 13 3 C12.34 4.32 11.68 5.64 11 7 C4.82777121 5.75971762 -1.06682122 4.10396411 -7 2 C-7 1.67 -7 1.34 -7 1 C-2.25 0 -2.25 0 0 0 Z " fill="#C21515" transform="translate(419,408)"/>
<path d="M0 0 C4.27454425 2.7479213 8.14126153 5.69250989 12 9 C9.01758453 9.77321882 6.02419525 10.41196203 3 11 C3.185625 10.4225 3.37125 9.845 3.5625 9.25 C4.05059317 6.73980653 3.97552619 5.35752163 3 3 C2.01 2.67 1.02 2.34 0 2 C0 1.34 0 0.68 0 0 Z " fill="#C61215" transform="translate(198,291)"/>
<path d="M0 0 C3.7952131 1.49097658 5.61042731 3.75700849 8 7 C7.01 7 6.02 7 5 7 C4.67 7.99 4.34 8.98 4 10 C1.24049934 7.50754779 -0.62030099 5.79699009 -1 2 C-0.67 1.34 -0.34 0.68 0 0 Z " fill="#C51311" transform="translate(275,276)"/>
<path d="M0 0 C1.27609323 0.90933009 2.54565553 1.82782853 3.8125 2.75 C4.87404297 3.51570313 4.87404297 3.51570313 5.95703125 4.296875 C8.02977691 6.02482358 9.47375854 7.78526476 11 10 C5.46927374 10.36871508 5.46927374 10.36871508 3.25 8.625 C2.8375 8.08875 2.425 7.5525 2 7 C1.34 6.34 0.68 5.68 0 5 C-0.125 2.375 -0.125 2.375 0 0 Z " fill="#C21412" transform="translate(250,253)"/>
<path d="M0 0 C0.71285156 0.45890625 1.42570312 0.9178125 2.16015625 1.390625 C7.37254796 4.72992305 12.58843574 7.99357541 18 11 C15.3333581 12.33332095 13.83319697 11.67102033 11 11 C11 10.34 11 9.68 11 9 C10.42765625 8.71382813 9.8553125 8.42765625 9.265625 8.1328125 C5.84375 6.421875 2.421875 4.7109375 -1 3 C-0.67 2.01 -0.34 1.02 0 0 Z " fill="#B91616" transform="translate(375,364)"/>
<path d="M0 0 C2.50719458 2.32649587 4.32183601 4.82681521 6.1875 7.6875 C6.71730469 8.49574219 7.24710937 9.30398438 7.79296875 10.13671875 C8.39044922 11.05904297 8.39044922 11.05904297 9 12 C8.67 12.66 8.34 13.32 8 14 C3.77036532 12.48941618 2.08753827 9.87685679 0 6 C-0.25 2.625 -0.25 2.625 0 0 Z " fill="#C41316" transform="translate(408,298)"/>
<path d="M0 0 C1.31611677 0.95336021 2.62778961 1.91285774 3.9375 2.875 C4.66839844 3.40867187 5.39929688 3.94234375 6.15234375 4.4921875 C8 6 8 6 9 8 C7.02 7.34 5.04 6.68 3 6 C3 6.66 3 7.32 3 8 C1 7 1 7 -2 5 C-2.33 5.66 -2.66 6.32 -3 7 C-2.67 5.35 -2.34 3.7 -2 2 C-1.34 2 -0.68 2 0 2 C0 1.34 0 0.68 0 0 Z " fill="#C71211" transform="translate(163,262)"/>
<path d="M0 0 C4.18423892 3.50897269 8.19588166 7.08060535 12 11 C10.35 11 8.7 11 7 11 C7 10.01 7 9.02 7 8 C5.68 8.33 4.36 8.66 3 9 C3 7.68 3 6.36 3 5 C2.34 5 1.68 5 1 5 C0.67 3.35 0.34 1.7 0 0 Z " fill="#C11215" transform="translate(355,347)"/>
<path d="M0 0 C0.43570313 0.37511719 0.87140625 0.75023437 1.3203125 1.13671875 C5.18607599 4.45859777 9.07657648 7.74642927 13 11 C10 11 10 11 7 10 C7 9.34 7 8.68 7 8 C6.401875 7.896875 5.80375 7.79375 5.1875 7.6875 C2.63994217 6.88683897 1.58475902 6.13942468 0 4 C0 2.68 0 1.36 0 0 Z " fill="#C21316" transform="translate(217,223)"/>
<path d="M0 0 C3.19249477 2.96647745 5.4592987 6.04963636 7.75 9.75 C8.36359375 10.73484375 8.9771875 11.7196875 9.609375 12.734375 C10.29773438 13.85585938 10.29773438 13.85585938 11 15 C8.03 14.505 8.03 14.505 5 14 C5 12.02 5 10.04 5 8 C4.34 8 3.68 8 3 8 C3 7.01 3 6.02 3 5 C2.34 5 1.68 5 1 5 C0.67 3.35 0.34 1.7 0 0 Z " fill="#BB1518" transform="translate(422,319)"/>
<path d="M0 0 C0 0.66 0 1.32 0 2 C-1.32 2.33 -2.64 2.66 -4 3 C-3.67 3.66 -3.34 4.32 -3 5 C-7.07369424 7.03684712 -9.58937864 7.0257259 -14 6 C-9.95001278 2.59801074 -5.36373351 0 0 0 Z " fill="#C21111" transform="translate(174,49)"/>
<path d="M0 0 C2.64 0.33 5.28 0.66 8 1 C8 1.66 8 2.32 8 3 C9.65 2.67 11.3 2.34 13 2 C13.66 3.65 14.32 5.3 15 7 C9.76727367 5.36041242 4.84803364 3.61047965 0 1 C0 0.67 0 0.34 0 0 Z " fill="#C01316" transform="translate(392,400)"/>
<path d="M0 0 C2.91517292 1.07401108 4.77810176 1.77810176 7 4 C9.58354218 4.16687448 9.58354218 4.16687448 12 4 C13.20628008 6.33214148 14.1654738 8.49642139 15 11 C10.92584833 9.59790456 8.01720177 7.65552322 4.6875 4.9375 C3.80449219 4.22464844 2.92148437 3.51179688 2.01171875 2.77734375 C1.34785156 2.19082031 0.68398438 1.60429687 0 1 C0 0.67 0 0.34 0 0 Z " fill="#BD1212" transform="translate(351,374)"/>
<path d="M0 0 C6.52307692 0.61538462 6.52307692 0.61538462 8.9375 2.5625 C9.288125 3.036875 9.63875 3.51125 10 4 C9.01 4.495 9.01 4.495 8 5 C7.67 5.66 7.34 6.32 7 7 C5.83040013 6.02433888 4.66438823 5.044375 3.5 4.0625 C2.8503125 3.51722656 2.200625 2.97195312 1.53125 2.41015625 C1.0259375 1.94480469 0.520625 1.47945312 0 1 C0 0.67 0 0.34 0 0 Z " fill="#C4130F" transform="translate(99,147)"/>
<path d="M0 0 C0.33 0 0.66 0 1 0 C1.33 2.64 1.66 5.28 2 8 C1.071875 8.61875 1.071875 8.61875 0.125 9.25 C-2.06768281 11.05573879 -2.92788417 12.4090534 -4 15 C-5 13 -5 13 -4.00390625 9.9609375 C-3.52824219 8.77757812 -3.05257812 7.59421875 -2.5625 6.375 C-2.08941406 5.18648437 -1.61632812 3.99796875 -1.12890625 2.7734375 C-0.75636719 1.85820312 -0.38382812 0.94296875 0 0 Z " fill="#BD1314" transform="translate(76,130)"/>
<path d="M0 0 C2 0.1875 2 0.1875 4 1 C6 4 6 4 6 7 C6.66 7 7.32 7 8 7 C7.67 7.66 7.34 8.32 7 9 C4.03 6.69 1.06 4.38 -2 2 C-1.34 1.34 -0.68 0.68 0 0 Z " fill="#C31312" transform="translate(247,136)"/>
<path d="M0 0 C0.12375 0.61875 0.2475 1.2375 0.375 1.875 C0.87197356 4.19120832 0.87197356 4.19120832 3 6 C2.625 8.125 2.625 8.125 2 10 C0.68 10.33 -0.64 10.66 -2 11 C-2 10.01 -2 9.02 -2 8 C-2.66 7.67 -3.32 7.34 -4 7 C-2.68 4.69 -1.36 2.38 0 0 Z " fill="#C81215" transform="translate(84,115)"/>
<path d="M0 0 C0.99 1.32 1.98 2.64 3 4 C2.54625 4.515625 2.0925 5.03125 1.625 5.5625 C-0.38200383 8.57300574 -1.12731809 11.50927237 -2 15 C-2.66 14.67 -3.32 14.34 -4 14 C-3.52372025 12.04096255 -3.04388577 10.08278903 -2.5625 8.125 C-2.29566406 7.03445312 -2.02882813 5.94390625 -1.75390625 4.8203125 C-1 2 -1 2 0 0 Z " fill="#BD1518" transform="translate(262,103)"/>
<path d="M0 0 C0.66 0.33 1.32 0.66 2 1 C1.360625 1.598125 0.72125 2.19625 0.0625 2.8125 C-2.20310389 4.90810337 -2.20310389 4.90810337 -3 8 C-2.34 8 -1.68 8 -1 8 C-1.66 9.32 -2.32 10.64 -3 12 C-4.32 11.01 -5.64 10.02 -7 9 C-5.44499019 5.18315774 -2.96404505 2.80804268 0 0 Z " fill="#C01214" transform="translate(276,84)"/>
<path d="M0 0 C2.30874711 2.16614803 4.05290181 4.39206608 5.75 7.0625 C6.19859375 7.75472656 6.6471875 8.44695312 7.109375 9.16015625 C7.40328125 9.76730469 7.6971875 10.37445313 8 11 C7.67 11.66 7.34 12.32 7 13 C4.525 12.01 4.525 12.01 2 11 C2 10.01 2 9.02 2 8 C1.34561559 5.99594773 0.67939174 3.99571323 0 2 C0 1.34 0 0.68 0 0 Z " fill="#C21318" transform="translate(223,73)"/>
<path d="M0 0 C1.98 0 3.96 0 6 0 C6 2.31 6 4.62 6 7 C6.66 7 7.32 7 8 7 C8.33 8.65 8.66 10.3 9 12 C5.0963126 8.53005564 2.63411025 4.44775994 0 0 Z " fill="#BF1415" transform="translate(425,363)"/>
<path d="M0 0 C-1.93254772 2.0245738 -3.63158688 3.42105792 -6 5 C-9 5 -12 5 -15 5 C-12.30932731 3.20621821 -9.91421743 2.02686042 -6.9375 0.8125 C-5.62072266 0.26529297 -5.62072266 0.26529297 -4.27734375 -0.29296875 C-2 -1 -2 -1 0 0 Z " fill="#BE1211" transform="translate(198,40)"/>
<path d="M0 0 C4.08963819 2.28538605 7.46362104 4.95706926 11 8 C8.33333333 8 5.66666667 8 3 8 C3 6.68 3 5.36 3 4 C2.34 3.67 1.68 3.34 1 3 C0.67 2.01 0.34 1.02 0 0 Z " fill="#C31215" transform="translate(113,222)"/>
<path d="M0 0 C0.78375 0.185625 1.5675 0.37125 2.375 0.5625 C4.97089775 1.25962266 4.97089775 1.25962266 7 0 C8.74834267 2.622514 9.51529754 3.99484478 10 7 C9.67 7.66 9.34 8.32 9 9 C7.49704815 7.69088122 5.99770689 6.37761608 4.5 5.0625 C3.6646875 4.33160156 2.829375 3.60070312 1.96875 2.84765625 C1.3190625 2.23792969 0.669375 1.62820312 0 1 C0 0.67 0 0.34 0 0 Z " fill="#BD1113" transform="translate(173,214)"/>
<path d="M0 0 C3.25524265 3.02272532 5.61820737 6.25718301 8 10 C7.67 10.66 7.34 11.32 7 12 C4.625 11.0625 4.625 11.0625 2 9 C0.95977199 6.0518161 0.43412264 3.09069405 0 0 Z " fill="#BE1417" transform="translate(458,371)"/>
<path d="M0 0 C3.4398759 0 5.43271292 0.46441758 7.95703125 2.84765625 C9.69798248 4.85808262 11.37770589 6.89293753 13 9 C9.02348017 9 7.85083826 7.55718178 4.8125 5.0625 C3.91144531 4.33160156 3.01039063 3.60070312 2.08203125 2.84765625 C1.39496094 2.23792969 0.70789063 1.62820313 0 1 C0 0.67 0 0.34 0 0 Z " fill="#BC1416" transform="translate(208,328)"/>
<path d="M0 0 C3.42931954 3.7559214 4.56429083 8.23466745 6 13 C4.078125 12.2109375 4.078125 12.2109375 2 11 C0.55760783 7.10554113 0 4.16477964 0 0 Z " fill="#BE161A" transform="translate(393,268)"/>
<path d="M0 0 C0.66 0 1.32 0 2 0 C2 1.65 2 3.3 2 5 C2.99 5 3.98 5 5 5 C4.67 7.64 4.34 10.28 4 13 C1.99706653 9.99559979 1.50728374 8.29006055 0.875 4.8125 C0.70742188 3.91144531 0.53984375 3.01039063 0.3671875 2.08203125 C0.24601562 1.39496094 0.12484375 0.70789063 0 0 Z " fill="#C21215" transform="translate(345,199)"/>
<path d="M0 0 C1.32 0 2.64 0 4 0 C5.5625 2.125 5.5625 2.125 7 5 C7.86625 6.546875 7.86625 6.546875 8.75 8.125 C10 11 10 11 9 14 C8.68546875 13.40832031 8.3709375 12.81664063 8.046875 12.20703125 C5.66735376 7.81351764 3.29961953 3.78845205 0 0 Z " fill="#B41519" transform="translate(323,102)"/>
<path d="M0 0 C4.37934119 0.51958285 8.68803391 1.05675742 13 2 C13 2.33 13 2.66 13 3 C7.06 3.495 7.06 3.495 1 4 C0.67 2.68 0.34 1.36 0 0 Z " fill="#BC1614" transform="translate(387,436)"/>
<path d="M0 0 C3.08089673 2.77280706 4.68775452 5.06326356 6 9 C4.35 9 2.7 9 1 9 C0.67 6.03 0.34 3.06 0 0 Z " fill="#C51313" transform="translate(449,358)"/>
<path d="M0 0 C2.25 -0.375 2.25 -0.375 5 0 C7.1875 2.8125 7.1875 2.8125 9 6 C9.99 7.485 9.99 7.485 11 9 C8.03469503 7.64199529 5.70868729 6.07571737 3.25 3.9375 C2.63640625 3.41027344 2.0228125 2.88304687 1.390625 2.33984375 C0.93171875 1.89769531 0.4728125 1.45554687 0 1 C0 0.67 0 0.34 0 0 Z " fill="#BC1518" transform="translate(134,267)"/>
<path d="M0 0 C2 1 4 2 6 3 C6 2.34 6 1.68 6 1 C6.99 1.33 7.98 1.66 9 2 C8.67 3.65 8.34 5.3 8 7 C4.2047869 5.50902342 2.38957269 3.24299151 0 0 Z " fill="#BF1314" transform="translate(128,173)"/>
<path d="M0 0 C0.99 0.33 1.98 0.66 3 1 C2.01 1.66 1.02 2.32 0 3 C0 3.66 0 4.32 0 5 C0.66 5.33 1.32 5.66 2 6 C0.68 6.33 -0.64 6.66 -2 7 C-2.33 6.34 -2.66 5.68 -3 5 C-3.99 4.67 -4.98 4.34 -6 4 C-3.1875 1.9375 -3.1875 1.9375 0 0 Z " fill="#C31011" transform="translate(284,79)"/>
<path d="M0 0 C1.32 0.66 2.64 1.32 4 2 C3.67 3.65 3.34 5.3 3 7 C-1.875 4.25 -1.875 4.25 -3 2 C-2.01 1.34 -1.02 0.68 0 0 Z " fill="#C41111" transform="translate(323,344)"/>
<path d="M0 0 C3.81684226 1.55500981 6.19195732 4.03595495 9 7 C6.69 6.67 4.38 6.34 2 6 C1.34 4.02 0.68 2.04 0 0 Z " fill="#C11113" transform="translate(211,302)"/>
<path d="M0 0 C1.90389849 2.85584773 2.69462177 4.9311762 3.625 8.1875 C4.01558594 9.53908203 4.01558594 9.53908203 4.4140625 10.91796875 C4.60742188 11.60503906 4.80078125 12.29210937 5 13 C3.68 12.67 2.36 12.34 1 12 C0.67 8.04 0.34 4.08 0 0 Z " fill="#BC1516" transform="translate(379,233)"/>
<path d="M0 0 C1.98 0.66 3.96 1.32 6 2 C6 2.99 6 3.98 6 5 C7.32 4.67 8.64 4.34 10 4 C9.34 5.32 8.68 6.64 8 8 C6.66372225 6.85760183 5.33104612 5.71098945 4 4.5625 C3.2575 3.92441406 2.515 3.28632813 1.75 2.62890625 C1.1725 2.09136719 0.595 1.55382812 0 1 C0 0.67 0 0.34 0 0 Z " fill="#B91310" transform="translate(258,290)"/>
<path d="M0 0 C3.08089673 2.77280706 4.68775452 5.06326356 6 9 C3.96166576 7.7260411 1.96147874 6.38938077 0 5 C0 4.34 0 3.68 0 3 C-0.66 2.67 -1.32 2.34 -2 2 C-1.34 2 -0.68 2 0 2 C0 1.34 0 0.68 0 0 Z " fill="#C2141A" transform="translate(345,93)"/>
<path d="M0 0 C2.00293347 3.00440021 2.49271626 4.70993945 3.125 8.1875 C3.37636719 9.53908203 3.37636719 9.53908203 3.6328125 10.91796875 C3.75398438 11.60503906 3.87515625 12.29210937 4 13 C3.34 13 2.68 13 2 13 C2 11.35 2 9.7 2 8 C1.34 8 0.68 8 0 8 C0 5.36 0 2.72 0 0 Z " fill="#BA1614" transform="translate(473,397)"/>
<path d="M0 0 C4.0369867 1.79421631 6.64480474 3.20551875 9 7 C5.08788267 5.84414715 2.1254959 4.64465038 -1 2 C-0.67 1.34 -0.34 0.68 0 0 Z " fill="#C2151B" transform="translate(383,393)"/>
<path d="M0 0 C2.24215439 1.0788609 4.13939103 2.10659314 6.125 3.625 C7.88127926 5.19712122 7.88127926 5.19712122 10 5 C10 6.32 10 7.64 10 9 C6.78956118 7.61811547 4.95063635 6.07578097 2.75 3.375 C2.22921875 2.74335938 1.7084375 2.11171875 1.171875 1.4609375 C0.78515625 0.97882813 0.3984375 0.49671875 0 0 Z " fill="#BA1213" transform="translate(335,359)"/>
<path d="M0 0 C2.97 0.495 2.97 0.495 6 1 C7 4 7 4 6 7 C4.02 4.69 2.04 2.38 0 0 Z " fill="#BF1414" transform="translate(238,272)"/>
<path d="M0 0 C3.96 0 7.92 0 12 0 C12 0.33 12 0.66 12 1 C10.95199219 1.30744141 10.95199219 1.30744141 9.8828125 1.62109375 C8.97273438 1.89050781 8.06265625 2.15992187 7.125 2.4375 C6.22007812 2.70433594 5.31515625 2.97117187 4.3828125 3.24609375 C2.01724619 3.92613826 2.01724619 3.92613826 0 5 C0 3.35 0 1.7 0 0 Z " fill="#C21114" transform="translate(291,97)"/>
<path d="M0 0 C5.75 1.75 5.75 1.75 8 4 C5.69 4 3.38 4 1 4 C0.67 2.68 0.34 1.36 0 0 Z " fill="#C81212" transform="translate(395,377)"/>
<path d="M0 0 C5.875 3.75 5.875 3.75 7 6 C4.36 5.67 1.72 5.34 -1 5 C-0.67 3.35 -0.34 1.7 0 0 Z " fill="#C51214" transform="translate(343,337)"/>
<path d="M0 0 C0.66 0.33 1.32 0.66 2 1 C2.59355614 3.64860427 2.74209269 6.29197322 3 9 C0.33264727 6.51047079 -1.55746343 4.36591866 -3 1 C-2.01 0.67 -1.02 0.34 0 0 Z " fill="#C01514" transform="translate(408,333)"/>
<path d="M0 0 C-0.33 0.99 -0.66 1.98 -1 3 C-3.64 3 -6.28 3 -9 3 C-7.14340032 -0.71319936 -3.69365381 -0.09982848 0 0 Z " fill="#C91411" transform="translate(404,458)"/>
<path d="M0 0 C1.70884005 1.62339805 3.37446717 3.29319053 5 5 C5 5.66 5 6.32 5 7 C3.35 6.67 1.7 6.34 0 6 C0 5.34 0 4.68 0 4 C-0.66 3.67 -1.32 3.34 -2 3 C-1.34 3 -0.68 3 0 3 C0 2.01 0 1.02 0 0 Z " fill="#C21416" transform="translate(444,351)"/>
<path d="M0 0 C2.475 0.495 2.475 0.495 5 1 C5 2.65 5 4.3 5 6 C3.0625 5.25 3.0625 5.25 1 4 C0.25 1.875 0.25 1.875 0 0 Z " fill="#C51311" transform="translate(227,341)"/>
<path d="M0 0 C0 1.65 0 3.3 0 5 C0.66 5.33 1.32 5.66 2 6 C1.01 6 0.02 6 -1 6 C-3.1875 3.5 -3.1875 3.5 -5 1 C-3 0 -3 0 0 0 Z " fill="#BB1512" transform="translate(233,262)"/>
<path d="M0 0 C1.98 1.65 3.96 3.3 6 5 C4.68 5.99 3.36 6.98 2 8 C0.23537317 4.91190305 0 3.76687864 0 0 Z " fill="#C81110" transform="translate(230,235)"/>
<path d="M0 0 C6.0546875 -0.1953125 6.0546875 -0.1953125 8 0 C8.66 0.66 9.32 1.32 10 2 C6.7 2.33 3.4 2.66 0 3 C0 2.01 0 1.02 0 0 Z " fill="#C71416" transform="translate(436,395)"/>
<path d="M0 0 C2.31 1.98 4.62 3.96 7 6 C5.02 6.99 5.02 6.99 3 8 C0 2.25 0 2.25 0 0 Z " fill="#BB1314" transform="translate(296,294)"/>
<path d="M0 0 C1.65 0.99 3.3 1.98 5 3 C4.01 3.495 4.01 3.495 3 4 C2.01 3.67 1.02 3.34 0 3 C0 2.01 0 1.02 0 0 Z M-3 1 C-2.67 1.66 -2.34 2.32 -2 3 C-1.34 3 -0.68 3 0 3 C0 3.66 0 4.32 0 5 C-1.32 4.67 -2.64 4.34 -4 4 C-3.67 3.01 -3.34 2.02 -3 1 Z " fill="#C61211" transform="translate(102,213)"/>
<path d="M0 0 C5.75 3.625 5.75 3.625 8 7 C6.68 7 5.36 7 4 7 C4 6.01 4 5.02 4 4 C2.68 3.34 1.36 2.68 0 2 C0 1.34 0 0.68 0 0 Z M2 7 C4 8 4 8 4 8 Z " fill="#C01218" transform="translate(174,185)"/>
<path d="M0 0 C1.32 0 2.64 0 4 0 C5.06775224 1.96466413 6.06553465 3.96855359 7 6 C6.67 6.66 6.34 7.32 6 8 C4.9970458 6.85675161 3.99770973 5.71032809 3 4.5625 C2.443125 3.92441406 1.88625 3.28632812 1.3125 2.62890625 C0 1 0 1 0 0 Z " fill="#B91819" transform="translate(232,124)"/>
<path d="M0 0 C0.33 1.32 0.66 2.64 1 4 C0.34 4 -0.32 4 -1 4 C-1.33 5.65 -1.66 7.3 -2 9 C-2.99 8.67 -3.98 8.34 -5 8 C-3.35 5.36 -1.7 2.72 0 0 Z " fill="#B91316" transform="translate(268,93)"/>
<path d="M0 0 C1.65 0.99 3.3 1.98 5 3 C4.67 3.99 4.34 4.98 4 6 C2.02 4.68 0.04 3.36 -2 2 C-1.34 1.34 -0.68 0.68 0 0 Z " fill="#C11313" transform="translate(332,433)"/>
<path d="M0 0 C2.375 -0.125 2.375 -0.125 5 0 C7 2 7 2 7 5 C4.11562221 3.70700306 2.12780579 2.34058637 0 0 Z " fill="#C01417" transform="translate(320,427)"/>
<path d="M0 0 C2.31 1.65 4.62 3.3 7 5 C5 6 5 6 1.875 5.0625 C0.92625 4.711875 -0.0225 4.36125 -1 4 C-1 1 -1 1 0 0 Z " fill="#C51313" transform="translate(322,318)"/>
<path d="M0 0 C2.31 0 4.62 0 7 0 C7 0.99 7 1.98 7 3 C6.34 3.66 5.68 4.32 5 5 C3.35 3.35 1.7 1.7 0 0 Z " fill="#C81217" transform="translate(222,258)"/>
<path d="M0 0 C4.35535069 1.16142685 6.64619703 2.07699505 9 6 C8.67 6.66 8.34 7.32 8 8 C6.66372225 6.85760183 5.33104612 5.71098945 4 4.5625 C3.2575 3.92441406 2.515 3.28632813 1.75 2.62890625 C1.1725 2.09136719 0.595 1.55382812 0 1 C0 0.67 0 0.34 0 0 Z " fill="#B91318" transform="translate(113,250)"/>
<path d="M0 0 C1.65 0 3.3 0 5 0 C4.01 0.495 4.01 0.495 3 1 C3.66 3.31 4.32 5.62 5 8 C2.20127563 5.47211993 0.54226981 3.79588866 0 0 Z " fill="#BC1315" transform="translate(393,315)"/>
<path d="M0 0 C1.98 1.65 3.96 3.3 6 5 C3 6 3 6 0 5 C0 3.35 0 1.7 0 0 Z " fill="#BB1517" transform="translate(306,303)"/>
<path d="M0 0 C0.33 0.99 0.66 1.98 1 3 C1.99 3.33 2.98 3.66 4 4 C4 4.99 4 5.98 4 7 C0.83884224 5.63016497 0.0072908 5.0109362 -2 2 C-1.34 1.34 -0.68 0.68 0 0 Z " fill="#BE1516" transform="translate(252,281)"/>
<path d="M0 0 C1.98 1.65 3.96 3.3 6 5 C5.67 5.66 5.34 6.32 5 7 C3.68 7 2.36 7 1 7 C-0.231394 4.53721199 -0.07159196 2.7204945 0 0 Z " fill="#BB1818" transform="translate(339,86)"/>
<path d="M0 0 C0.66 0.66 1.32 1.32 2 2 C1.67 2.66 1.34 3.32 1 4 C-1.4375 3.625 -1.4375 3.625 -4 3 C-4.33 2.34 -4.66 1.68 -5 1 C-2.625 0.375 -2.625 0.375 0 0 Z " fill="#C71314" transform="translate(315,418)"/>
<path d="M0 0 C5.75 0.75 5.75 0.75 8 3 C5.69 3.33 3.38 3.66 1 4 C0.67 2.68 0.34 1.36 0 0 Z " fill="#BA1714" transform="translate(419,388)"/>
<path d="M0 0 C2.13562754 2.13562754 2.63318342 3.06546739 3 6 C2.34 6.66 1.68 7.32 1 8 C0.01 6.35 -0.98 4.7 -2 3 C-1.34 2.01 -0.68 1.02 0 0 Z " fill="#C71313" transform="translate(419,348)"/>
<path d="M0 0 C2.31 0 4.62 0 7 0 C7.33 0.66 7.66 1.32 8 2 C7.01 2 6.02 2 5 2 C5 2.66 5 3.32 5 4 C1.125 2.25 1.125 2.25 0 0 Z " fill="#C1150F" transform="translate(86,228)"/>
<path d="M0 0 C0.99 0.33 1.98 0.66 3 1 C2.67 4.3 2.34 7.6 2 11 C1.67 11 1.34 11 1 11 C0.67 7.37 0.34 3.74 0 0 Z " fill="#B31614" transform="translate(67,189)"/>
<path d="M0 0 C2.05825864 4.11651727 2.34008135 4.86808251 1 9 C0.01 9.495 0.01 9.495 -1 10 C-0.67 6.7 -0.34 3.4 0 0 Z " fill="#C61113" transform="translate(363,182)"/>
<path d="M0 0 C1.65 1.65 3.3 3.3 5 5 C3.0625 5.5625 3.0625 5.5625 1 6 C0 5 0 5 -0.0625 2.4375 C-0.041875 1.633125 -0.02125 0.82875 0 0 Z " fill="#BE1113" transform="translate(139,153)"/>
<path d="M0 0 C1.98 1.65 3.96 3.3 6 5 C2.125 7 2.125 7 1 7 C0.67 4.69 0.34 2.38 0 0 Z " fill="#BA1517" transform="translate(128,143)"/>
<path d="M0 0 C0.99 0 1.98 0 3 0 C3 0.66 3 1.32 3 2 C3.66 2.33 4.32 2.66 5 3 C2.525 4.485 2.525 4.485 0 6 C0.33 4.68 0.66 3.36 1 2 C0.34 1.67 -0.32 1.34 -1 1 C-0.67 0.67 -0.34 0.34 0 0 Z " fill="#C61013" transform="translate(131,91)"/>
</svg>
