<?xml version="1.0" encoding="UTF-8"?>
<svg version="1.1" xmlns="http://www.w3.org/2000/svg" width="245" height="93">
<path d="M0 0 C20.79 0 41.58 0 63 0 C63 5.28 63 10.56 63 16 C49.47 16 35.94 16 22 16 C22 18.31 22 20.62 22 23 C35.53 23 49.06 23 63 23 C63 36.2 63 49.4 63 63 C42.21 63 21.42 63 0 63 C0 57.39 0 51.78 0 46 C13.53 46 27.06 46 41 46 C41 43.69 41 41.38 41 39 C27.47 39 13.94 39 0 39 C0 26.13 0 13.26 0 0 Z " fill="#000000" transform="translate(172,15)"/>
<path d="M0 0 C21.12 0 42.24 0 64 0 C64 12.87 64 25.74 64 39 C56.41 39.33 48.82 39.66 41 40 C47.55557156 46.65800237 54.21631208 52.96166872 61.5 58.8125 C62.325 59.534375 63.15 60.25625 64 61 C64 61.66 64 62.32 64 63 C42.77581816 64.47128171 42.77581816 64.47128171 36.68359375 61.2421875 C34.51292255 58.95113919 32.77527102 56.60456429 31 54 C29.66411053 52.74856332 28.28900389 51.53744889 26.875 50.375 C22.9825236 47.10531982 19.65566152 43.65566152 16 40 C15.67 47.59 15.34 55.18 15 63 C10.05 63 5.1 63 0 63 C0 49.8 0 36.6 0 23 C15.18 23 30.36 23 46 23 C46 20.36 46 17.72 46 15 C30.82 15 15.64 15 0 15 C0 10.05 0 5.1 0 0 Z " fill="#000000" transform="translate(80,15)"/>
<path d="M0 0 C5.28 0 10.56 0 16 0 C16 15.51 16 31.02 16 47 C23.59 47 31.18 47 39 47 C39 52.28 39 57.56 39 63 C33.62485095 63.04935509 28.24983315 63.08569802 22.87451172 63.10986328 C21.04506127 63.11993484 19.21562697 63.13359276 17.38623047 63.15087891 C14.76005066 63.17507677 12.13408325 63.18647132 9.5078125 63.1953125 C8.27649094 63.21079636 8.27649094 63.21079636 7.02029419 63.22659302 C5.01210858 63.22699184 3.00444618 63.1224954 1 63 C-1 61 -1 61 -1.24723816 58.53308105 C-1.24581314 57.49542603 -1.24438812 56.457771 -1.24291992 55.38867188 C-1.24599655 54.21405396 -1.24907318 53.03943604 -1.25224304 51.82922363 C-1.24505753 50.55526733 -1.23787201 49.28131104 -1.23046875 47.96875 C-1.23001053 46.66675659 -1.22955231 45.36476318 -1.2290802 44.02331543 C-1.22751515 41.26597775 -1.21922409 38.50876987 -1.20581055 35.75146484 C-1.18882063 32.21379856 -1.18499621 28.67627499 -1.18575573 25.13857269 C-1.1854187 21.76944594 -1.17658152 18.40036619 -1.16796875 15.03125 C-1.16685593 13.7572937 -1.1657431 12.4833374 -1.16459656 11.17077637 C-1.15821671 9.99615845 -1.15183685 8.82154053 -1.14526367 7.61132812 C-1.14145187 6.5736731 -1.13764008 5.53601807 -1.13371277 4.46691895 C-1 2 -1 2 0 0 Z " fill="#000000" transform="translate(11,15)"/>
<path d="M0 0 C5.53588533 -0.02464775 11.071739 -0.04283496 16.60766602 -0.05493164 C18.4924373 -0.05997244 20.37720465 -0.06680498 22.26196289 -0.07543945 C24.96501636 -0.08751617 27.66801831 -0.09323068 30.37109375 -0.09765625 C31.21900986 -0.10281754 32.06692596 -0.10797882 32.9405365 -0.11329651 C34.96071068 -0.11349195 36.98077934 -0.06206211 39 0 C40 1 40 1 40.11352539 4.60180664 C40.11336625 6.20459856 40.10767063 7.8073956 40.09765625 9.41015625 C40.0962413 10.25219101 40.09482635 11.09422577 40.09336853 11.96177673 C40.08775263 14.66205335 40.07519748 17.36224828 40.0625 20.0625 C40.05748705 21.88867068 40.05292379 23.71484266 40.04882812 25.54101562 C40.03862716 30.02740085 40.01905499 34.51360855 40 39 C34.39 39 28.78 39 23 39 C23 31.41 23 23.82 23 16 C15.41 16 7.82 16 0 16 C0 10.72 0 5.44 0 0 Z " fill="#000000" transform="translate(34,15)"/>
<path d="M0 0 C5.28 0 10.56 0 16 0 C16 20.79 16 41.58 16 63 C10.72 63 5.44 63 0 63 C0 42.21 0 21.42 0 0 Z " fill="#000000" transform="translate(150,15)"/>
<path d="M0 0 C5.61 0 11.22 0 17 0 C17 10.56 17 21.12 17 32 C11.39 32 5.78 32 0 32 C0 21.44 0 10.88 0 0 Z " fill="#000000" transform="translate(57,61)"/>
<path d="M0 0 C1.32 0 2.64 0 4 0 C4 10.23 4 20.46 4 31 C1.0780231 32.46098845 -1.49893475 32.11134901 -4.7578125 32.09765625 C-5.75238968 32.09553383 -5.75238968 32.09553383 -6.76705933 32.09336853 C-8.88641863 32.08776754 -11.00567259 32.075215 -13.125 32.0625 C-14.56119639 32.05748512 -15.99739444 32.05292219 -17.43359375 32.04882812 C-20.95576345 32.03779782 -24.47787145 32.02053259 -28 32 C-28 30.35 -28 28.7 -28 27 C-27.21761963 26.97494385 -26.43523926 26.9498877 -25.62915039 26.92407227 C-22.10675051 26.80850212 -18.5846444 26.68560051 -15.0625 26.5625 C-13.21495117 26.50352539 -13.21495117 26.50352539 -11.33007812 26.44335938 C-10.16025391 26.40146484 -8.99042969 26.35957031 -7.78515625 26.31640625 C-6.70113525 26.27974854 -5.61711426 26.24309082 -4.50024414 26.20532227 C-2.060737 26.27635735 -2.060737 26.27635735 -1 25 C-0.84213692 23.14825294 -0.74892644 21.2909089 -0.68359375 19.43359375 C-0.64169922 18.30888672 -0.59980469 17.18417969 -0.55664062 16.02539062 C-0.51732422 14.84138672 -0.47800781 13.65738281 -0.4375 12.4375 C-0.39431641 11.24962891 -0.35113281 10.06175781 -0.30664062 8.83789062 C-0.20016454 5.89205216 -0.09815159 2.9461257 0 0 Z " fill="#000000" transform="translate(241,61)"/>
<path d="M0 0 C1.29349365 0.00523682 2.5869873 0.01047363 3.91967773 0.01586914 C4.9496714 0.01799156 4.9496714 0.01799156 6.00047302 0.02015686 C8.20144949 0.0257706 10.40232557 0.03832532 12.60327148 0.05102539 C14.09220231 0.05603863 15.58113473 0.06060184 17.07006836 0.06469727 C20.72700223 0.07574446 24.38387707 0.09301826 28.04077148 0.11352539 C28.04077148 1.43352539 28.04077148 2.75352539 28.04077148 4.11352539 C14.67577148 4.60852539 14.67577148 4.60852539 1.04077148 5.11352539 C0.71077148 13.69352539 0.38077148 22.27352539 0.04077148 31.11352539 C-1.27922852 31.11352539 -2.59922852 31.11352539 -3.95922852 31.11352539 C-3.98388474 26.85937916 -4.0020675 22.60527041 -4.01416016 18.35107422 C-4.01919952 16.90282467 -4.02603105 15.45458022 -4.03466797 14.00634766 C-4.04675099 11.92877951 -4.05246063 9.85127842 -4.05688477 7.77368164 C-4.06212158 6.52208252 -4.0673584 5.2704834 -4.07275391 3.98095703 C-3.9180759 0.07409004 -3.92018637 0.15039078 0 0 Z " fill="#000000" transform="translate(3.959228515625,-0.113525390625)"/>
<path d="M0 0 C5.28 0 10.56 0 16 0 C16 5.61 16 11.22 16 17 C10.72 17 5.44 17 0 17 C0 11.39 0 5.78 0 0 Z M5 5 C5 6.98 5 8.96 5 11 C6.98 11 8.96 11 11 11 C11 9.02 11 7.04 11 5 C9.02 5 7.04 5 5 5 Z " fill="#000000" transform="translate(34,38)"/>
</svg>
