<?xml version="1.0" encoding="UTF-8"?>
<svg version="1.1" xmlns="http://www.w3.org/2000/svg" width="659" height="202">
<path d="M0 0 C1.5747686 0.00636726 1.5747686 0.00636726 3.18135071 0.01286316 C6.49226952 0.02948357 9.80255043 0.06710375 13.11328125 0.10546875 C15.37564217 0.12053711 17.63801276 0.13422172 19.90039062 0.14648438 C25.40906708 0.17933224 30.91737857 0.22936199 36.42578125 0.29296875 C38.6105537 5.08353468 39.5908446 10.06381951 40.69384766 15.18286133 C40.91257003 16.181171 41.1312924 17.17948067 41.35664272 18.20804214 C42.0842387 21.53366219 42.80573654 24.86057581 43.52734375 28.1875 C44.04153505 30.54244317 44.55614621 32.8972947 45.07115173 35.25205994 C46.45067339 41.56423247 47.82519848 47.87748305 49.19871902 54.19096375 C51.46491948 64.60508215 53.7410051 75.01705032 56.01558876 85.42934036 C56.58424819 88.03277381 57.15276653 90.63623753 57.72102928 93.23975754 C61.31954137 109.72390611 64.94852935 126.20061838 68.640625 142.6640625 C69.02549523 144.38234445 69.41034273 146.10063149 69.79516602 147.81892395 C71.36143729 154.80864278 72.93151539 161.79744136 74.51534557 168.78320408 C74.99038989 170.88268588 75.46267169 172.98276598 75.93373108 175.08314514 C76.49221717 177.57221879 77.0554616 180.06023236 77.6247406 182.54685974 C77.86531693 183.62419876 78.10589325 184.70153778 78.35375977 185.81152344 C78.56259293 186.73342468 78.77142609 187.65532593 78.98658752 188.60516357 C79.42578125 191.29296875 79.42578125 191.29296875 79.42578125 197.29296875 C62.92578125 197.29296875 46.42578125 197.29296875 29.42578125 197.29296875 C28.43578125 193.27109375 27.44578125 189.24921875 26.42578125 185.10546875 C26.11253906 183.84581299 25.79929687 182.58615723 25.4765625 181.28833008 C25.23292969 180.28568115 24.98929688 179.28303223 24.73828125 178.25 C24.36123047 176.7182312 24.36123047 176.7182312 23.9765625 175.15551758 C23.42578125 172.29296875 23.42578125 172.29296875 23.42578125 167.29296875 C0.98578125 167.29296875 -21.45421875 167.29296875 -44.57421875 167.29296875 C-45.56421875 170.59296875 -46.55421875 173.89296875 -47.57421875 177.29296875 C-51.53421875 187.19296875 -51.53421875 187.19296875 -55.57421875 197.29296875 C-74.38421875 197.29296875 -93.19421875 197.29296875 -112.57421875 197.29296875 C-110.53114244 191.16373983 -108.42075101 185.37836445 -105.79296875 179.51953125 C-105.42739365 178.69531677 -105.06181854 177.87110229 -104.68516541 177.02191162 C-103.48528494 174.31890477 -102.2797107 171.61847702 -101.07421875 168.91796875 C-100.22229445 167.0010107 -99.37082156 165.08385197 -98.51977539 163.16650391 C-96.75210395 159.18507895 -94.9825006 155.20452151 -93.21142578 151.22460938 C-89.5232414 142.93341814 -85.85521672 134.63333266 -82.18875122 126.33251953 C-81.00314838 123.64856726 -79.81691746 120.96489321 -78.63061523 118.28125 C-74.02235129 107.85363529 -69.43119961 97.41865879 -64.85473633 86.97705078 C-62.2731119 81.08703526 -59.6857773 75.19953345 -57.09715271 69.31259155 C-55.03999761 64.63317207 -52.98689564 59.95201926 -50.93896484 55.26855469 C-48.68195005 50.1078459 -46.41614193 44.95107126 -44.14498901 39.79656982 C-43.2748666 37.8177998 -42.40770532 35.83772464 -41.54373169 33.85626221 C-40.33789306 31.09200504 -39.12133611 28.33269569 -37.90234375 25.57421875 C-37.3783625 24.36280716 -37.3783625 24.36280716 -36.84379578 23.12692261 C-33.62604411 15.89874612 -29.62382649 7.36607545 -22.57421875 3.29296875 C-15.00727232 0.61545105 -7.97664882 -0.124359 0 0 Z M-1.57421875 56.29296875 C-4.86617808 64.1093692 -8.04886992 71.95895203 -11.11328125 79.8671875 C-11.52081635 80.91646927 -11.92835144 81.96575104 -12.34823608 83.04682922 C-13.20101513 85.24389712 -14.05302805 87.44126253 -14.90429688 89.63891602 C-16.20044451 92.98363182 -17.50048134 96.32681848 -18.80078125 99.66992188 C-19.63435001 101.81891911 -20.4676912 103.96800464 -21.30078125 106.1171875 C-21.87743027 107.59876595 -21.87743027 107.59876595 -22.46572876 109.11027527 C-22.829758 110.05188004 -23.19378723 110.9934848 -23.56884766 111.96362305 C-23.88463776 112.77792282 -24.20042786 113.5922226 -24.52578735 114.43119812 C-25.96296978 118.3540933 -27.25306017 122.32949301 -28.57421875 126.29296875 C-14.38421875 126.29296875 -0.19421875 126.29296875 14.42578125 126.29296875 C9.47578125 103.19296875 4.52578125 80.09296875 -0.57421875 56.29296875 C-0.90421875 56.29296875 -1.23421875 56.29296875 -1.57421875 56.29296875 Z " fill="#0056A0" transform="translate(579.57421875,2.70703125)"/>
<path d="M0 0 C11.93564896 -0.09294224 23.87121091 -0.16388772 35.80714893 -0.20724869 C41.35032302 -0.22806652 46.89324834 -0.25627779 52.4362793 -0.30175781 C57.79201875 -0.34542293 63.14751988 -0.3691807 68.50342369 -0.37950897 C70.54023677 -0.38686336 72.57703775 -0.40122426 74.61374855 -0.42292023 C99.52190052 -0.67754695 99.52190052 -0.67754695 107.4375 6.75 C114.91579304 16.89434704 115.79351618 35.23512839 118.28146935 47.36590385 C118.96352308 50.69082544 119.64990824 54.01482815 120.33735657 57.33863831 C122.03955178 65.57284423 123.73493029 73.8084499 125.4296875 82.04418945 C126.87141051 89.04941773 128.31609974 96.05402028 129.7650547 103.05775642 C130.44222895 106.33724287 131.11493042 109.61762701 131.78752136 112.89805603 C132.19885686 114.88838366 132.61040976 116.87866637 133.0222168 118.86889648 C133.20870285 119.78458908 133.3951889 120.70028168 133.58732605 121.64372253 C134.10303972 125.64751328 134.10303972 125.64751328 136 129 C136.76160724 127.0536704 137.52321428 125.10734072 138.28482056 123.16101074 C138.97880758 121.38749067 139.67279777 119.61397183 140.36679077 117.8404541 C142.35364965 112.76296801 144.3404483 107.68545836 146.32714844 102.60791016 C150.07017131 93.04176939 153.81339505 83.47570805 157.55897522 73.91056824 C159.08161638 70.02213056 160.60398299 66.13358543 162.12631226 62.24502563 C162.87491367 60.33301292 163.62363177 58.42104589 164.37246704 56.50912476 C168.33402314 46.39402294 172.28593601 36.27539473 176.20703125 26.14453125 C176.53740387 25.29169556 176.86777649 24.43885986 177.2081604 23.56018066 C178.75892407 19.55684025 180.30723738 15.55259172 181.85058594 11.54638672 C182.39116496 10.14937108 182.93184843 8.75239584 183.47265625 7.35546875 C183.93937744 6.14528076 184.40609863 4.93509277 184.88696289 3.68823242 C186 1 186 1 187 0 C188.77991924 -0.09370624 190.56356739 -0.11744271 192.34594727 -0.11352539 C194.05760826 -0.11341209 194.05760826 -0.11341209 195.80384827 -0.11329651 C197.0454924 -0.10813522 198.28713654 -0.10297394 199.56640625 -0.09765625 C201.46204567 -0.09553383 201.46204567 -0.09553383 203.39598083 -0.09336853 C206.76124889 -0.08870582 210.1264499 -0.0797148 213.49169922 -0.06866455 C216.9234967 -0.05844846 220.35530109 -0.05387049 223.78710938 -0.04882812 C230.52475824 -0.0377738 237.26237525 -0.0210171 244 0 C243.39430792 3.50593264 242.47550392 6.55841817 241.07666016 9.82641602 C240.67681412 10.76692307 240.27696808 11.70743011 239.86500549 12.67643738 C239.42744431 13.69200211 238.98988312 14.70756683 238.5390625 15.75390625 C237.85341469 17.36057915 237.85341469 17.36057915 237.15391541 18.99971008 C235.6489723 22.52266914 234.13708509 26.04260111 232.625 29.5625 C231.83527431 31.40683446 231.04631073 33.25149348 230.25747013 35.09620667 C222.9741962 52.12817484 215.64211796 69.13921973 208.28442383 86.13916016 C201.7572288 101.22298748 195.28112501 116.32847473 188.8125 131.4375 C179.58932217 152.97924697 170.31721803 174.49872763 161 196 C141.86 196 122.72 196 103 196 C99.62483362 185.87450086 99.62483362 185.87450086 98.41967773 181.57910156 C98.00390221 180.10322571 98.00390221 180.10322571 97.57972717 178.59753418 C97.28400314 177.53925415 96.98827911 176.48097412 96.68359375 175.390625 C96.35858383 174.23437622 96.03357391 173.07812744 95.69871521 171.88684082 C94.79868921 168.68276457 93.90067902 165.47813775 93.00380707 162.2731781 C92.04347231 158.84230399 91.08139001 155.4119198 90.11962891 151.98144531 C88.85167392 147.45811393 87.58424005 142.9346375 86.31799316 138.41082764 C83.46108032 128.20537714 80.59538354 118.0024294 77.7238245 107.80109024 C75.32846033 99.29092893 72.93693074 90.77969566 70.54788876 82.26775742 C69.06323993 76.97861496 67.57683597 71.68997937 66.08639526 66.40246582 C64.66911678 61.37405804 63.25682121 56.34427671 61.84822273 51.31343079 C61.3229809 49.4408757 60.79593153 47.5688266 60.26699638 45.6973114 C59.54021657 43.12472222 58.81985871 40.55041852 58.10107422 37.97558594 C57.88619575 37.22076054 57.67131727 36.46593513 57.44992733 35.68823624 C56.50811642 32.28985528 56 29.55950658 56 26 C54.73736328 25.61521484 54.73736328 25.61521484 53.44921875 25.22265625 C50.42710779 24.15139834 47.65413496 22.88236999 44.7980957 21.43603516 C33.2889596 15.64821189 21.13980186 11.82609439 8.88989258 7.92626953 C5.91861487 6.97391441 2.95829789 5.99186275 0 5 C0 3.35 0 1.7 0 0 Z " fill="#00579F" transform="translate(0,3)"/>
<path d="M0 0 C1.22229054 2.44458109 0.93572433 3.33252403 0.47094727 5.99072266 C0.33072647 6.81142242 0.19050568 7.63212219 0.04603577 8.47769165 C-0.11224197 9.36419403 -0.27051971 10.25069641 -0.43359375 11.1640625 C-0.59038101 12.07127045 -0.74716827 12.97847839 -0.90870667 13.91317749 C-1.41221399 16.81821613 -1.924751 19.72157974 -2.4375 22.625 C-2.77989155 24.59104236 -3.12169605 26.55718706 -3.46289062 28.5234375 C-4.30177961 33.35017333 -5.14877162 38.17542567 -6 43 C-9.91278931 44.3042631 -11.12621821 43.34483626 -14.875 41.75 C-24.61370393 37.8501853 -34.51934738 35.55249447 -45 35 C-45.84820312 34.94714844 -46.69640625 34.89429688 -47.5703125 34.83984375 C-58.00284383 34.490065 -69.90366886 35.83867823 -78 43 C-80.31111979 45.81667725 -80.92463384 47.39707073 -81.375 51 C-80.8024608 55.58031364 -79.06702722 58.13542585 -75.48828125 61.03515625 C-67.84809225 65.91247248 -60.0149137 70.07061258 -51.875 74.0625 C-34.07100554 82.79953134 -16.0788228 93.01573175 -9.125 112.8125 C-4.80167482 127.82478253 -6.92132571 143.16184894 -14 157 C-24.74783883 175.2525642 -42.30531865 185.92673652 -62.484375 191.22265625 C-71.64271821 193.48576718 -80.60668002 195.14448687 -90.07421875 195.203125 C-90.83174438 195.21013931 -91.58927002 195.21715363 -92.36975098 195.22438049 C-94.80906148 195.24183043 -97.24812932 195.24823514 -99.6875 195.25 C-100.51980133 195.25067474 -101.35210266 195.25134949 -102.20962524 195.25204468 C-114.68465777 195.23595523 -126.80352514 194.8699179 -139 192 C-140.23097412 191.71068604 -140.23097412 191.71068604 -141.48681641 191.41552734 C-156.20029705 187.84293397 -156.20029705 187.84293397 -161 184 C-160.04896212 178.2143295 -159.08846454 172.43034012 -158.11914062 166.64770508 C-157.7906826 164.6800403 -157.46482022 162.71194041 -157.14160156 160.7434082 C-156.67673505 157.91499495 -156.20257596 155.08827455 -155.7265625 152.26171875 C-155.58376862 151.38037766 -155.44097473 150.49903656 -155.29385376 149.59098816 C-155.15385956 148.77036392 -155.01386536 147.94973969 -154.86962891 147.10424805 C-154.74971588 146.38254929 -154.62980286 145.66085052 -154.5062561 144.9172821 C-154 143 -154 143 -152 140 C-151.4831665 140.22139648 -150.96633301 140.44279297 -150.43383789 140.67089844 C-135.38293735 147.05884828 -120.51457334 152.4179886 -104 153 C-102.98808594 153.0515625 -101.97617187 153.103125 -100.93359375 153.15625 C-89.21107187 153.49480659 -76.93495741 152.30401509 -68 144 C-64.76704519 139.72108922 -64.76481295 136.36736731 -65.28515625 131.24609375 C-67.79111668 123.37217437 -76.19686385 119.65652225 -83 116 C-86.96149512 114.00542585 -90.95083856 112.06866711 -94.9375 110.125 C-113.00865164 101.26913267 -130.03293331 90.62822585 -137.171875 70.734375 C-139.77316785 59.00401667 -139.12150281 45.90004052 -134 35 C-133.649375 34.21753906 -133.29875 33.43507812 -132.9375 32.62890625 C-129.72067036 26.18407743 -125.01781852 21.10538952 -120 16 C-119.45730469 15.44441406 -118.91460937 14.88882812 -118.35546875 14.31640625 C-90.05194149 -12.12410403 -34.35312334 -14.35739673 0 0 Z " fill="#0056A0" transform="translate(479,7)"/>
<path d="M0 0 C17.82 0 35.64 0 54 0 C52.8512928 13.78448643 52.8512928 13.78448643 51.70959473 20.33229065 C51.58285574 21.08363358 51.45611676 21.83497651 51.3255372 22.60908741 C50.90735299 25.0808071 50.48204176 27.55124158 50.05664062 30.02172852 C49.75227277 31.8116389 49.44834523 33.6016242 49.14482117 35.39167786 C48.325085 40.21825828 47.49906922 45.0437442 46.67173576 49.86902738 C45.80533112 54.92789265 44.94434395 59.98768008 44.0826416 65.04734802 C42.63683051 73.53191279 41.18712742 82.0158051 39.73486328 90.49926758 C38.05524852 100.31097389 36.38085401 110.12355957 34.70943499 119.93666512 C32.92830323 130.39365505 31.1435543 140.85002516 29.35764885 151.30620074 C28.84335908 154.3186961 28.32972985 157.33130348 27.8162384 160.34393501 C27.01083404 165.068056 26.20299952 169.79175518 25.39325905 174.51513481 C25.09614383 176.25046822 24.79983663 177.9859402 24.50438499 179.72155762 C24.10192257 182.08494179 23.69655167 184.4478087 23.29040527 186.81056213 C23.17338084 187.50179076 23.0563564 188.19301939 22.93578577 188.90519434 C22.45214427 191.70264202 21.89984499 194.30046503 21 197 C3.18 197 -14.64 197 -33 197 C-31.8512928 183.21551357 -31.8512928 183.21551357 -30.70959473 176.66770935 C-30.58285574 175.91636642 -30.45611676 175.16502349 -30.3255372 174.39091259 C-29.90735299 171.9191929 -29.48204176 169.44875842 -29.05664062 166.97827148 C-28.75227277 165.1883611 -28.44834523 163.3983758 -28.14482117 161.60832214 C-27.325085 156.78174172 -26.49906922 151.9562558 -25.67173576 147.13097262 C-24.80533112 142.07210735 -23.94434395 137.01231992 -23.0826416 131.95265198 C-21.63683051 123.46808721 -20.18712742 114.9841949 -18.73486328 106.50073242 C-17.05524852 96.68902611 -15.38085401 86.87644043 -13.70943499 77.06333488 C-11.92830323 66.60634495 -10.1435543 56.14997484 -8.35764885 45.69379926 C-7.84335908 42.6813039 -7.32972985 39.66869652 -6.8162384 36.65606499 C-6.01083404 31.931944 -5.20299952 27.20824482 -4.39325905 22.48486519 C-4.09614383 20.74953178 -3.79983663 19.0140598 -3.50438499 17.27844238 C-3.10192257 14.91505821 -2.69655167 12.5521913 -2.29040527 10.18943787 C-2.17338084 9.49820924 -2.0563564 8.80698061 -1.93578577 8.09480566 C-1.45214427 5.29735798 -0.89984499 2.69953497 0 0 Z " fill="#0056A0" transform="translate(265,3)"/>
<path d="M0 0 C11.93564896 -0.09294224 23.87121091 -0.16388772 35.80714893 -0.20724869 C41.35032302 -0.22806652 46.89324834 -0.25627779 52.4362793 -0.30175781 C57.79201875 -0.34542293 63.14751988 -0.3691807 68.50342369 -0.37950897 C70.54023677 -0.38686336 72.57703775 -0.40122426 74.61374855 -0.42292023 C99.52190052 -0.67754695 99.52190052 -0.67754695 107.4375 6.75 C110.06318693 10.2763261 110.9098406 13.95402232 111.93066406 18.19458008 C112.10047413 18.89692433 112.27028419 19.59926859 112.44524002 20.322896 C114.33458525 28.22895834 116.01614625 36.17909254 117.671875 44.13671875 C118.00233138 45.71615786 118.3329209 47.29556911 118.66363525 48.87495422 C119.34807156 52.14755269 120.03008315 55.42064483 120.71044922 58.6940918 C121.58129872 62.88240454 122.45968375 67.06909842 123.33997726 71.25543499 C124.02116283 74.50007154 124.69775525 77.74565304 125.37302399 80.99152565 C125.69519901 82.53677883 126.01894497 84.08170538 126.3443222 85.62628746 C126.79649949 87.77553134 127.24230304 89.92600381 127.68652344 92.0769043 C128.06813629 93.90646919 128.06813629 93.90646919 128.4574585 95.772995 C128.93292141 98.60102048 129.11345319 101.14294074 129 104 C126.59960774 101.10778426 124.99584691 98.06329213 123.40063477 94.67041016 C117.64536448 82.44793754 110.23159106 72.03061309 101.0078125 62.1640625 C99.28645685 60.30874922 97.70342909 58.41279126 96.125 56.4375 C92.02188027 51.62422493 86.9702477 47.87080809 82 44 C81.03578125 43.24332031 80.0715625 42.48664062 79.078125 41.70703125 C57.86906908 25.40747902 34.15785292 15.82661703 8.77880859 7.87866211 C5.84178621 6.94997264 2.9200487 5.98062141 0 5 C0 3.35 0 1.7 0 0 Z " fill="#F9A51A" transform="translate(0,3)"/>
</svg>
